<?xml version="1.0" encoding="UTF-8"?>
<svg version="1.1" xmlns="http://www.w3.org/2000/svg" width="1354" height="489">
<path d="M0 0 C2.77550558 1.21890347 5.43648798 2.56129651 8.11047363 3.98899841 C9.09079559 4.48764908 10.07111755 4.98629974 11.08114624 5.50006104 C14.18378145 7.08465526 17.26797385 8.70182263 20.35266113 10.32102966 C22.42833762 11.38901595 24.50515339 12.45479104 26.58312988 13.51829529 C31.27956372 15.9261823 35.96233452 18.35905697 40.64056396 20.80207825 C44.12324183 22.59444091 47.63963373 24.3158654 51.16317749 26.02630615 C54.99839947 28.08321174 56.8631564 30.04001547 58.22766113 34.13352966 C58.31005282 35.97963499 58.33509472 37.8285813 58.32531738 39.67649841 C58.32209473 40.74964294 58.31887207 41.82278748 58.31555176 42.92845154 C58.30717285 44.04800232 58.29879395 45.1675531 58.29016113 46.32102966 C58.28564941 47.45218201 58.2811377 48.58333435 58.27648926 49.74876404 C58.26469611 52.54373893 58.24823763 55.33860786 58.22766113 58.13352966 C59.02687988 57.77259216 59.82609863 57.41165466 60.64953613 57.03977966 C61.74781738 56.57571716 62.84609863 56.11165466 63.97766113 55.63352966 C65.04500488 55.16946716 66.11234863 54.70540466 67.21203613 54.22727966 C76.0873698 51.26830236 85.88731011 53.33316298 94.72375488 55.43431091 C95.7603273 55.67135239 96.79689972 55.90839386 97.86488342 56.15261841 C100.03340743 56.65160911 102.20047872 57.15695299 104.36608887 57.66844177 C107.67762814 58.44896812 110.99397332 59.2057185 114.31164551 59.95970154 C116.42850428 60.44984807 118.54505274 60.94133712 120.66125488 61.43431091 C121.64774521 61.65943863 122.63423553 61.88456635 123.65061951 62.11651611 C133.0481611 64.35917368 133.0481611 64.35917368 136.22766113 67.13352966 C138.88559089 72.26906467 139.65467502 76.47869363 139.5682373 82.2719574 C139.56867538 83.05326523 139.56911346 83.83457306 139.56956482 84.63955688 C139.56748974 87.19900794 139.54422015 89.75778806 139.52062988 92.31712341 C139.51502935 94.10073489 139.51076141 95.884351 139.50776672 97.66796875 C139.49635391 102.34515799 139.46691765 107.02206438 139.43365479 111.69914246 C139.40287683 116.47866491 139.38924492 121.25823339 139.37414551 126.03782654 C139.34204433 135.40318466 139.29089137 144.76833357 139.22766113 154.13352966 C139.90806961 153.92480728 140.58847809 153.7160849 141.289505 153.5010376 C142.18537827 153.22869797 143.08125153 152.95635834 144.00427246 152.67576599 C144.89093094 152.40516861 145.77758942 152.13457123 146.69111633 151.85577393 C152.7587276 150.12810981 158.78347903 149.9514561 165.04016113 149.94602966 C165.8026416 149.93378357 166.56512207 149.92153748 167.35070801 149.90892029 C169.31111568 149.90372027 171.27110497 150.01059376 173.22766113 150.13352966 C175.79907361 152.70494214 175.46765405 154.40828703 175.48760986 157.91296387 C175.48199036 158.72212753 175.47637085 159.5312912 175.47058105 160.36497498 C175.4724794 161.21750351 175.47437775 162.07003204 175.47633362 162.94839478 C175.48005638 165.78623987 175.46929903 168.62383197 175.45812988 171.46165466 C175.45693665 173.44633453 175.45648522 175.43101498 175.45674133 177.41569519 C175.45517283 181.59560135 175.44686828 185.77542232 175.43347168 189.95530701 C175.41670161 195.24872323 175.41265104 200.54204389 175.41341686 205.83548355 C175.41314102 209.94884616 175.40759118 214.06218887 175.40041542 218.17554474 C175.39728246 220.12228495 175.39527428 222.06902737 175.39452171 224.01576996 C175.389372 230.38949767 175.3337331 236.7606886 175.22766113 243.13352966 C175.21394596 244.10590073 175.20023079 245.07827179 175.18610001 246.08010864 C175.13528469 249.0360985 175.05545607 251.98996715 174.96716309 254.9450531 C174.95371196 255.83414494 174.94026083 256.72323677 174.92640209 257.63927078 C174.41874476 271.36424682 165.97862325 282.22771149 156.32531738 291.37571716 C130.15777679 315.19777804 91.62799836 329.70336609 56.41125488 330.49681091 C53.38198607 329.99283596 51.65363406 329.02314635 49.22766113 327.13352966 C48.66003418 324.31443787 48.66003418 324.31443787 48.73937988 320.93431091 C48.75549316 319.72581482 48.77160645 318.51731873 48.78820801 317.27220154 C48.83010254 316.00956482 48.87199707 314.7469281 48.91516113 313.44602966 C48.93771973 312.17179138 48.96027832 310.8975531 48.98352051 309.58470154 C49.04253851 306.43314006 49.12483138 303.28391688 49.22766113 300.13352966 C48.55219238 300.35009216 47.87672363 300.56665466 47.18078613 300.78977966 C45.84273926 301.20743591 45.84273926 301.20743591 44.47766113 301.63352966 C43.15508301 302.05118591 43.15508301 302.05118591 41.80578613 302.47727966 C39.22766113 303.13352966 39.22766113 303.13352966 35.22766113 303.13352966 C35.24337158 303.71320496 35.25908203 304.29288025 35.27526855 304.89012146 C35.33788904 307.53365705 35.37673631 310.17703621 35.41516113 312.82102966 C35.44029785 313.73304138 35.46543457 314.6450531 35.49133301 315.58470154 C35.58494532 324.16583017 35.58494532 324.16583017 32.22766113 328.13352966 C28.6102891 330.54511102 26.96417395 330.38688082 22.65910339 330.39422607 C21.65327083 330.39996439 21.65327083 330.39996439 20.62711841 330.40581864 C18.37499027 330.4161558 16.12311676 330.41215503 13.87097168 330.40818787 C12.25779484 330.41253436 10.64462006 330.4177173 9.03144836 330.42367554 C4.64237306 330.43709416 0.25338373 330.43764026 -4.13570809 330.43511224 C-7.80537585 330.4340429 -11.47502619 330.43892577 -15.14469022 330.44371766 C-23.81396196 330.45482608 -32.4831904 330.45524497 -41.15246582 330.44920349 C-50.07106429 330.44318309 -58.98950422 330.45542224 -67.90807563 330.47677356 C-75.57794072 330.49445481 -83.24775569 330.50038006 -90.91764039 330.49713582 C-95.49223423 330.4953307 -100.0667154 330.4978801 -104.64129066 330.51185036 C-108.95463345 330.52452784 -113.26773234 330.52239194 -117.58107185 330.50943947 C-119.15388831 330.50709427 -120.72672244 330.50973341 -122.29951859 330.51806259 C-145.15762662 330.63026109 -163.35223979 324.53495718 -179.89733887 308.50852966 C-205.68340331 282.4832471 -212.92811342 242.46029308 -214.10046387 207.28977966 C-213.66726855 204.44306757 -212.75454851 203.21322173 -210.77233887 201.13352966 C-208.39949036 200.6525116 -208.39949036 200.6525116 -205.56652832 200.6794281 C-204.50565506 200.67973022 -203.4447818 200.68003235 -202.35176086 200.68034363 C-201.20793442 200.70098877 -200.06410797 200.72163391 -198.88562012 200.74290466 C-197.71347458 200.74856445 -196.54132904 200.75422424 -195.33366394 200.76005554 C-191.58364309 200.78247644 -187.83457176 200.83268583 -184.08483887 200.88352966 C-181.54513911 200.90358716 -179.0054244 200.92183923 -176.46569824 200.93821716 C-170.23425355 200.98236006 -164.00336403 201.04932985 -157.77233887 201.13352966 C-157.78899345 199.22458923 -157.78899345 199.22458923 -157.8059845 197.27708435 C-157.90743681 185.27128105 -157.98234122 173.26556497 -158.03139973 161.25942993 C-158.05746937 155.08723556 -158.09282045 148.91538783 -158.14953613 142.74339294 C-158.20394812 136.78465884 -158.23377921 130.82625772 -158.24672508 124.86729431 C-158.25594833 122.59632629 -158.27395934 120.32537606 -158.30098915 118.05455017 C-158.33740032 114.86823959 -158.34227899 111.68329679 -158.33996582 108.49681091 C-158.3579422 107.56244705 -158.37591858 106.62808319 -158.3944397 105.66540527 C-158.34468728 99.31251326 -156.89430358 95.03032365 -152.77233887 90.13352966 C-149.91662598 87.86766052 -149.91662598 87.86766052 -146.79968262 86.09837341 C-146.23592422 85.77115799 -145.67216583 85.44394257 -145.09132385 85.10681152 C-143.30722218 84.07664964 -141.50959412 83.07353876 -139.70983887 82.07102966 C-138.53239236 81.39766983 -137.35595155 80.72254828 -136.18054199 80.04563904 C-133.85891703 78.71168552 -131.53099081 77.39170854 -129.19787598 76.07762146 C-124.85834111 73.61480939 -120.57258132 71.06514288 -116.29187012 68.50169373 C-111.57845812 65.9422014 -108.31865279 65.50724121 -103.11413574 66.78733826 C-93.13276057 69.82729442 -83.62120702 73.78658195 -74.03186035 77.87449646 C-71.92719545 78.76884275 -69.81711503 79.64923384 -67.70593262 80.52806091 C-67.06739853 80.80503311 -66.42886444 81.08200531 -65.77098083 81.36737061 C-63.1608094 82.44665615 -61.24107549 83.18783187 -58.40148926 82.85887146 C-56.76718099 82.2478282 -56.76718099 82.2478282 -55.77233887 81.13352966 C-55.6754836 79.4879748 -55.64718082 77.83832873 -55.6463623 76.18992615 C-55.64065216 74.60709084 -55.64065216 74.60709084 -55.63482666 72.99227905 C-55.63328583 71.26588951 -55.63328583 71.26588951 -55.63171387 69.50462341 C-55.61337738 67.08339011 -55.59380631 64.6621659 -55.57312012 62.24095154 C-55.54420096 58.41161399 -55.52234038 54.58285637 -55.52185059 50.75340271 C-55.51850754 47.06578222 -55.48389064 43.37950933 -55.44421387 39.69212341 C-55.45128357 38.55536667 -55.45835327 37.41860992 -55.46563721 36.24740601 C-55.36016393 29.32554424 -54.55418265 24.34733152 -49.77233887 19.13352966 C-46.96081543 16.92771912 -46.96081543 16.92771912 -43.91296387 15.24681091 C-42.79663574 14.61839294 -41.68030762 13.98997498 -40.53015137 13.34251404 C-39.37257324 12.71667419 -38.21499512 12.09083435 -37.02233887 11.44602966 C-35.88022949 10.80858826 -34.73812012 10.17114685 -33.56140137 9.51438904 C-31.3244807 8.26865563 -29.07914854 7.03788876 -26.82507324 5.82347107 C-24.96951498 4.79626583 -23.13816155 3.72105765 -21.36022949 2.56468201 C-14.69479137 -1.7071486 -7.61498071 -2.37999582 0 0 Z M-4.77233887 19.13352966 C-7.24576385 21.21966101 -8.63411679 22.4251502 -9.26453018 25.65597916 C-9.26084301 26.61095669 -9.25715584 27.56593422 -9.25335693 28.54985046 C-9.25885559 29.64918915 -9.26435425 30.74852783 -9.27001953 31.88117981 C-9.25563843 33.08239471 -9.24125732 34.28360962 -9.22644043 35.52122498 C-9.22702454 36.78977325 -9.22760864 38.05832153 -9.22821045 39.36531067 C-9.22935791 42.84039655 -9.20584429 46.31492993 -9.17791462 49.78988743 C-9.15290585 53.42269653 -9.1505594 57.05551837 -9.14581299 60.68840027 C-9.13338161 67.56617004 -9.10055801 74.44368542 -9.06041503 81.32134318 C-9.0157022 89.15196441 -8.99371154 96.9825978 -8.97363329 104.81331491 C-8.93182535 120.92020207 -8.86147039 137.0268334 -8.77233887 153.13352966 C-5.31487871 153.97051461 -1.85623397 154.80249642 1.60266113 155.63352966 C2.58750488 155.87200623 3.57234863 156.11048279 4.58703613 156.35618591 C5.52805176 156.58177185 6.46906738 156.80735779 7.43859863 157.03977966 C8.30791016 157.24925232 9.17722168 157.45872498 10.07287598 157.67454529 C12.18649271 158.20297406 12.18649271 158.20297406 14.22766113 158.13352966 C14.23130676 157.2197757 14.23495239 156.30602173 14.2387085 155.36457825 C14.27661509 146.74256996 14.3334982 138.12093891 14.41156387 129.49919701 C14.45103033 125.06690897 14.48322279 120.63481936 14.49865723 116.20237732 C14.51382944 111.92274254 14.54828457 107.64365329 14.59597015 103.36426163 C14.61077821 101.73369215 14.61870182 100.10304479 14.61954498 98.47240829 C14.62191825 96.18356799 14.64902359 93.89623093 14.6817627 91.60765076 C14.69064514 90.30637238 14.69952759 89.00509399 14.7086792 87.66438293 C15.41268727 82.87471873 17.35240678 79.58238884 21.19470215 76.61375427 C21.86686768 76.25805359 22.5390332 75.90235291 23.23156738 75.53587341 C23.97213379 75.12659607 24.7127002 74.71731873 25.47570801 74.29563904 C26.23947754 73.89151794 27.00324707 73.48739685 27.79016113 73.07102966 C34.95160224 69.54227873 34.95160224 69.54227873 39.22766113 63.13352966 C39.62056688 60.2846894 39.64730437 57.50557764 39.60266113 54.63352966 C39.6142627 53.88716248 39.62586426 53.14079529 39.63781738 52.37181091 C39.6320166 51.27933044 39.6320166 51.27933044 39.62609863 50.16477966 C39.62271484 49.51058044 39.61933105 48.85638123 39.61584473 48.18235779 C38.91127004 44.46362145 37.19992284 41.88038895 34.21520996 39.58763123 C33.44201416 39.15418396 32.66881836 38.72073669 31.87219238 38.27415466 C30.98483398 37.77077576 30.09747559 37.26739685 29.18322754 36.74876404 C28.20789063 36.21573669 27.23255371 35.68270935 26.22766113 35.13352966 C25.18142578 34.55409607 24.13519043 33.97466248 23.05725098 33.37767029 C19.68686018 31.5265594 16.30333854 29.70185796 12.91516113 27.88352966 C11.76209473 27.25962341 10.60902832 26.63571716 9.42102051 25.99290466 C8.3092041 25.39477966 7.1973877 24.79665466 6.05187988 24.18040466 C5.05245361 23.64254333 4.05302734 23.10468201 3.02331543 22.55052185 C0.46435746 21.25350045 -2.0913536 20.14966261 -4.77233887 19.13352966 Z M74.47766113 73.50852966 C71.50791839 77.36919523 72.09489504 81.32402086 72.11413574 85.98948669 C72.11398972 86.90661438 72.11384369 87.82374207 72.11369324 88.7686615 C72.11439165 91.80957885 72.12218073 94.85043547 72.13000488 97.89134216 C72.13186932 99.9959866 72.1332931 102.10063147 72.1342926 104.20527649 C72.13811579 109.75209241 72.14794439 115.29888226 72.15899658 120.84568787 C72.16921497 126.50282946 72.17379114 132.15997526 72.17883301 137.81712341 C72.18956682 148.92260363 72.20664087 160.02806448 72.22766113 171.13352966 C73.43164551 171.45966248 74.63562988 171.78579529 75.87609863 172.12181091 C77.45178447 172.56262778 79.02729646 173.00406642 80.60266113 173.44602966 C81.39672363 173.65936951 82.19078613 173.87270935 83.00891113 174.09251404 C83.76945801 174.30843201 84.53000488 174.52434998 85.31359863 174.74681091 C86.01533203 174.94057312 86.71706543 175.13433533 87.44006348 175.33396912 C89.22766113 176.13352966 89.22766113 176.13352966 91.22766113 179.13352966 C95.90625053 178.36603073 98.45512476 175.54842474 101.91052246 172.48045349 C104.34749099 170.54916991 106.48693317 169.64251874 109.46789551 168.79026794 C114.83566291 167.01891089 119.04065512 164.95651907 122.22766113 160.13352966 C125.16749285 149.16241086 124.07479461 137.2529309 123.62811279 126.01487732 C123.51090554 122.59154718 123.47217403 119.16939313 123.4369936 115.7443819 C123.39215653 111.64037065 123.30750551 107.53750997 123.21594238 103.43431091 C123.20084436 102.65979395 123.18574635 101.88527699 123.17019081 101.08728981 C123.11876903 98.88042662 123.03980347 96.67635046 122.95153809 94.47068787 C122.90914505 93.21955704 122.86675201 91.96842621 122.82307434 90.67938232 C122.03994691 86.01563884 120.35494749 81.73401231 116.44226074 78.79026794 C113.26231245 77.84725605 110.05586818 77.20108524 106.79406738 76.62571716 C106.07911606 76.49537079 105.36416473 76.36502441 104.62754822 76.23072815 C103.11938095 75.95724139 101.61066124 75.68678595 100.10144043 75.41917419 C97.80020047 75.01031335 95.50121283 74.59025296 93.20227051 74.16868591 C91.73299023 73.90369253 90.26359275 73.639348 88.79406738 73.37571716 C88.11058731 73.2507486 87.42710724 73.12578003 86.72291565 72.99702454 C80.2851446 71.51697343 80.2851446 71.51697343 74.47766113 73.50852966 Z M-101.77233887 87.13352966 C-103.8928275 90.31426262 -104.02106886 91.07050913 -104.0128479 94.70828247 C-104.01559723 95.64637756 -104.01834656 96.58447266 -104.0211792 97.55099487 C-104.01398865 98.57814102 -104.0067981 99.60528717 -103.99938965 100.66355896 C-103.9996817 101.74664337 -103.99997375 102.82972778 -104.00027466 103.94563293 C-103.99887899 107.53308567 -103.98330645 111.12033187 -103.96765137 114.70774841 C-103.96392208 117.192107 -103.96107471 119.67646706 -103.95907593 122.16082764 C-103.95221443 128.03627266 -103.93644429 133.91164119 -103.91637695 139.78705484 C-103.89183358 147.13235216 -103.88108812 154.47765382 -103.86999512 161.82298279 C-103.84853325 174.92653734 -103.81438908 188.03002615 -103.77233887 201.13352966 C-99.48233887 201.13352966 -95.19233887 201.13352966 -90.77233887 201.13352966 C-90.73495605 199.74778748 -90.69757324 198.36204529 -90.65905762 196.93431091 C-90.59338493 195.10485735 -90.52693803 193.27543146 -90.45983887 191.44602966 C-90.42600098 190.07801208 -90.42600098 190.07801208 -90.39147949 188.68235779 C-90.02517662 179.52478605 -90.02517662 179.52478605 -86.77233887 176.13352966 C-80.47707409 172.44382167 -73.20745618 170.56253156 -66.27233887 168.44602966 C-64.30274824 167.84068512 -62.33394925 167.2327567 -60.36608887 166.62181091 C-59.50692871 166.359245 -58.64776855 166.09667908 -57.76257324 165.82615662 C-55.79808087 165.30440867 -55.79808087 165.30440867 -54.77233887 164.13352966 C-54.6579459 162.47798061 -54.6127339 160.81759311 -54.59533691 159.15818787 C-54.58250168 158.09650894 -54.56966644 157.03483002 -54.55644226 155.940979 C-54.54905533 154.78377853 -54.5416684 153.62657806 -54.53405762 152.43431091 C-54.52598587 151.25136948 -54.51791412 150.06842804 -54.50959778 148.84963989 C-54.49573464 146.33857193 -54.48502252 143.82748495 -54.47717285 141.31639099 C-54.45998958 137.47968084 -54.41612515 133.64383857 -54.37194824 129.80735779 C-54.36181932 127.37051518 -54.35330384 124.93366523 -54.34655762 122.49681091 C-54.32904953 121.3497316 -54.31154144 120.20265228 -54.29350281 119.02081299 C-54.31004438 112.92881629 -54.37706297 108.77006824 -58.77233887 104.13352966 C-62.90233503 100.91347133 -67.35481749 98.8478928 -72.18249512 96.89915466 C-73.21738319 96.47482147 -73.21738319 96.47482147 -74.2731781 96.04191589 C-75.72148324 95.45044481 -77.17118115 94.86237364 -78.62219238 94.27757263 C-80.83656549 93.382832 -83.04373441 92.47177353 -85.25085449 91.55931091 C-86.66516325 90.9840959 -88.07986399 90.40984353 -89.49499512 89.83665466 C-90.1503273 89.56484375 -90.80565948 89.29303284 -91.48085022 89.01298523 C-94.99290397 87.61387137 -97.98534365 86.51152347 -101.77233887 87.13352966 Z M-8.16932678 177.90188599 C-10.19912001 180.7276758 -10.2364867 182.31858154 -10.16296387 185.77415466 C-10.15007324 186.84407654 -10.13718262 187.91399841 -10.12390137 189.01634216 C-10.09038574 190.12751404 -10.05687012 191.23868591 -10.02233887 192.38352966 C-10.00429199 193.51017029 -9.98624512 194.63681091 -9.96765137 195.79759216 C-9.92054109 198.57709862 -9.85477247 201.35488306 -9.77233887 204.13352966 C-8.95394531 204.3785321 -8.13555176 204.62353455 -7.2923584 204.8759613 C5.35260235 208.73087217 15.19027524 214.35308619 21.91516113 226.07493591 C31.3130469 245.22312817 33.03668034 267.10655848 34.22766113 288.13352966 C35.79131698 287.84812452 37.35354547 287.55489468 38.91516113 287.25852966 C39.78527832 287.09610779 40.65539551 286.93368591 41.55187988 286.76634216 C44.25433978 286.12722026 46.66409322 285.18900598 49.22766113 284.13352966 C49.27926392 283.1170636 49.27926392 283.1170636 49.33190918 282.08006287 C51.0329228 250.79987294 58.53656228 223.22790046 76.22766113 197.13352966 C73.14729439 193.54282957 70.82210544 192.43724324 66.22839355 191.44187927 C65.01580368 191.17157394 63.80321381 190.90126862 62.55387878 190.62277222 C61.23036811 190.34346315 59.9067831 190.06450615 58.58312988 189.78587341 C57.21203004 189.48615208 55.8412096 189.18515004 54.47065735 188.88293457 C50.85752352 188.08999247 47.24073289 187.31516061 43.6229248 186.54386902 C39.99454431 185.76677448 36.37014406 184.97156847 32.74523926 184.17845154 C22.86540996 182.02153709 22.86540996 182.02153709 12.97091675 179.93330383 C10.32852655 179.36873768 7.71440363 178.77010626 5.09207153 178.12599182 C3.73925288 177.81146225 2.38641926 177.496997 1.03356934 177.18260193 C-0.17590866 176.88676712 -1.38538666 176.59093231 -2.6315155 176.28613281 C-5.84646436 175.7983029 -5.84646436 175.7983029 -8.16932678 177.90188599 Z " fill="#068743" transform="translate(244.7723388671875,26.866470336914063)"/>
<path d="M0 0 C2.77550558 1.21890347 5.43648798 2.56129651 8.11047363 3.98899841 C9.09079559 4.48764908 10.07111755 4.98629974 11.08114624 5.50006104 C14.18378145 7.08465526 17.26797385 8.70182263 20.35266113 10.32102966 C22.42833762 11.38901595 24.50515339 12.45479104 26.58312988 13.51829529 C31.27956372 15.9261823 35.96233452 18.35905697 40.64056396 20.80207825 C44.12324183 22.59444091 47.63963373 24.3158654 51.16317749 26.02630615 C54.99839947 28.08321174 56.8631564 30.04001547 58.22766113 34.13352966 C58.31005282 35.97963499 58.33509472 37.8285813 58.32531738 39.67649841 C58.32209473 40.74964294 58.31887207 41.82278748 58.31555176 42.92845154 C58.30717285 44.04800232 58.29879395 45.1675531 58.29016113 46.32102966 C58.28564941 47.45218201 58.2811377 48.58333435 58.27648926 49.74876404 C58.26469611 52.54373893 58.24823763 55.33860786 58.22766113 58.13352966 C59.02687988 57.77259216 59.82609863 57.41165466 60.64953613 57.03977966 C61.74781738 56.57571716 62.84609863 56.11165466 63.97766113 55.63352966 C65.04500488 55.16946716 66.11234863 54.70540466 67.21203613 54.22727966 C76.0873698 51.26830236 85.88731011 53.33316298 94.72375488 55.43431091 C95.7603273 55.67135239 96.79689972 55.90839386 97.86488342 56.15261841 C100.03340743 56.65160911 102.20047872 57.15695299 104.36608887 57.66844177 C107.67762814 58.44896812 110.99397332 59.2057185 114.31164551 59.95970154 C116.42850428 60.44984807 118.54505274 60.94133712 120.66125488 61.43431091 C121.64774521 61.65943863 122.63423553 61.88456635 123.65061951 62.11651611 C133.0481611 64.35917368 133.0481611 64.35917368 136.22766113 67.13352966 C138.88559089 72.26906467 139.65467502 76.47869363 139.5682373 82.2719574 C139.56867538 83.05326523 139.56911346 83.83457306 139.56956482 84.63955688 C139.56748974 87.19900794 139.54422015 89.75778806 139.52062988 92.31712341 C139.51502935 94.10073489 139.51076141 95.884351 139.50776672 97.66796875 C139.49635391 102.34515799 139.46691765 107.02206438 139.43365479 111.69914246 C139.40287683 116.47866491 139.38924492 121.25823339 139.37414551 126.03782654 C139.34204433 135.40318466 139.29089137 144.76833357 139.22766113 154.13352966 C137.33433579 154.95185688 135.4378838 155.76295234 133.54016113 156.57102966 C131.95654785 157.24972107 131.95654785 157.24972107 130.34094238 157.94212341 C127.60793584 158.98800421 125.10723776 159.66873715 122.22766113 160.13352966 C122.21886177 158.78169083 122.21886177 158.78169083 122.20988464 157.40254211 C122.1519172 148.89830561 122.07981714 140.39433061 121.99194622 131.89034843 C121.94726931 127.51862821 121.90800736 123.14700061 121.88122559 118.77513123 C121.85516575 114.55392128 121.8147446 110.33306824 121.76447487 106.11207962 C121.74782423 104.50383579 121.73629872 102.89553025 121.73004723 101.28721237 C121.72038623 99.02971468 121.69230484 96.77312631 121.66003418 94.51585388 C121.64893112 93.23234039 121.63782806 91.9488269 121.62638855 90.62641907 C121.19315933 86.83129067 120.19255439 84.38817334 118.22766113 81.13352966 C114.94666574 78.70072375 110.81568 78.32914824 106.86437988 77.62571716 C106.15417191 77.49537079 105.44396393 77.36502441 104.7122345 77.23072815 C103.2124737 76.95718034 101.71214551 76.68672746 100.21130371 76.41917419 C97.93178086 76.01150195 95.65493633 75.59081465 93.37805176 75.16868591 C91.91530403 74.90357334 90.45241742 74.63922571 88.98937988 74.37571716 C88.31622238 74.2507486 87.64306488 74.12578003 86.94950867 73.99702454 C82.66274162 73.24418315 78.57542626 73.02157005 74.22766113 73.13352966 C73.45765199 75.87806501 73.09608991 78.33571132 73.06944275 81.18315125 C73.05965393 81.97958038 73.04986511 82.77600952 73.03977966 83.59657288 C73.0340242 84.46116119 73.02826874 85.32574951 73.02233887 86.21653748 C73.01243927 87.13395721 73.00253967 88.05137695 72.99234009 88.99659729 C72.96077272 92.02659023 72.93598643 95.05659885 72.91125488 98.08665466 C72.89068125 100.18844509 72.86968467 102.29023141 72.84828186 104.39201355 C72.79310351 109.92231423 72.74367551 115.452652 72.69543457 120.98301697 C72.64518865 126.62697141 72.58951871 132.27087205 72.53430176 137.91477966 C72.42677198 148.98765036 72.32531547 160.06056778 72.22766113 171.13352966 C73.25246582 171.29208435 74.27727051 171.45063904 75.33312988 171.61399841 C76.6939878 171.84862909 78.05465548 172.08436496 79.41516113 172.32102966 C80.08869629 172.42222107 80.76223145 172.52341248 81.45617676 172.62767029 C86.49358724 173.53686145 88.957401 175.25366765 92.22766113 179.13352966 C90.88051648 182.17120879 89.4059941 184.13021168 86.97766113 186.38352966 C83.25234831 189.9838844 80.21900729 193.91496457 77.22766113 198.13352966 C76.52873749 197.50841995 75.82981384 196.88331024 75.10971069 196.23925781 C72.00258735 193.96908273 69.84976608 193.25284655 66.11486816 192.44187927 C64.29609665 192.03642128 64.29609665 192.03642128 62.44058228 191.62277222 C61.12228105 191.34348326 59.80390959 191.06452567 58.48547363 190.78587341 C57.11582287 190.4860601 55.74643163 190.18505902 54.37728882 189.88293457 C50.77220553 189.09092329 47.16370072 188.31574244 43.55426025 187.54386902 C39.93264628 186.76605184 36.31477167 185.9712371 32.69641113 185.17845154 C22.83853599 183.02430854 22.83853599 183.02430854 12.96795654 180.92939758 C10.3223136 180.36645212 7.69182339 179.77835942 5.05914307 179.16114807 C3.69723949 178.85555306 2.33528223 178.55019717 0.9732666 178.24510193 C-0.24813019 177.96086868 -1.46952698 177.67663544 -2.72793579 177.38378906 C-5.72861728 176.81865874 -5.72861728 176.81865874 -7.66691589 178.40507507 C-9.23384193 180.8551422 -9.20748612 182.78209584 -9.28405762 185.67649841 C-9.31950684 186.74964294 -9.35495605 187.82278748 -9.39147949 188.92845154 C-9.42531738 190.60777771 -9.42531738 190.60777771 -9.45983887 192.32102966 C-9.49399902 193.45218201 -9.52815918 194.58333435 -9.56335449 195.74876404 C-9.64590266 198.54360901 -9.71258046 201.33813208 -9.77233887 204.13352966 C-10.4498822 204.06501297 -11.12742554 203.99649628 -11.82550049 203.92590332 C-20.56120701 203.1132255 -29.27192465 202.91781153 -38.03796387 202.81712341 C-39.56781501 202.79649647 -41.0976612 202.77549876 -42.62750244 202.75415039 C-46.6123243 202.69952119 -50.59719239 202.64985662 -54.58209229 202.6013031 C-58.66507984 202.55064999 -62.74800205 202.495195 -66.83093262 202.44017029 C-74.81134576 202.33331473 -82.79181436 202.23171534 -90.77233887 202.13352966 C-90.85979833 198.73785997 -90.91288331 195.34248193 -90.95983887 191.94602966 C-90.98497559 190.98632263 -91.0101123 190.0266156 -91.03601074 189.03782654 C-91.12963243 180.01893683 -91.12963243 180.01893683 -87.77233887 176.13352966 C-84.64851686 173.20119811 -81.30929677 172.14284828 -77.25671387 170.87181091 C-75.38112793 170.27723083 -75.38112793 170.27723083 -73.46765137 169.67063904 C-72.15260011 169.2622655 -70.83749525 168.85406453 -69.52233887 168.44602966 C-68.19138292 168.02682712 -66.86065099 167.60691265 -65.53015137 167.18626404 C-62.27968294 166.16165986 -59.02710451 165.14438354 -55.77233887 164.13352966 C-55.67081036 156.55307979 -55.60081894 148.97280567 -55.5526123 141.39183044 C-55.53251324 138.81363879 -55.50522946 136.23549262 -55.47058105 133.65745544 C-55.4219904 129.94884506 -55.39935229 126.24083811 -55.38171387 122.53196716 C-55.36106873 121.38175079 -55.34042358 120.23153442 -55.31915283 119.04646301 C-55.31745255 112.96470715 -55.34683942 108.74892666 -59.77233887 104.13352966 C-62.30699492 102.34552726 -62.30699492 102.34552726 -65.21374512 101.09446716 C-66.27480469 100.60043396 -67.33586426 100.10640076 -68.42907715 99.59739685 C-73.82557885 97.23450623 -79.23808162 94.9419554 -84.70983887 92.75852966 C-85.80618652 92.30864685 -86.90253418 91.85876404 -88.03210449 91.39524841 C-89.08978027 90.97114685 -90.14745605 90.54704529 -91.23718262 90.11009216 C-92.18198486 89.72933533 -93.12678711 89.34857849 -94.10021973 88.95628357 C-96.81527624 88.12030911 -98.95094397 87.97172236 -101.77233887 88.13352966 C-102.95541226 90.49967645 -102.90969865 91.94792462 -102.93055725 94.58802795 C-102.94524048 95.9931086 -102.94524048 95.9931086 -102.96022034 97.42657471 C-102.9659758 98.45731613 -102.97173126 99.48805756 -102.97766113 100.55003357 C-102.98756073 101.63297195 -102.99746033 102.71591034 -103.00765991 103.83166504 C-103.03934121 107.42445156 -103.06405855 111.01725132 -103.08874512 114.61009216 C-103.10930892 117.09588472 -103.13030523 119.58167372 -103.15171814 122.06745911 C-103.20134264 127.94996073 -103.24659257 133.83248337 -103.2897405 139.7150358 C-103.35259698 148.24238581 -103.42426329 156.76966251 -103.49486542 165.29695129 C-103.5929494 177.24244183 -103.68175459 189.18796928 -103.77233887 201.13352966 C-121.59233887 201.13352966 -139.41233887 201.13352966 -157.77233887 201.13352966 C-157.97288291 175.74910989 -157.97288291 175.74910989 -158.01647949 164.91087341 C-158.04634403 157.52153016 -158.08163619 150.13249734 -158.14953613 142.74339294 C-158.20394812 136.78465884 -158.23377921 130.82625772 -158.24672508 124.86729431 C-158.25594833 122.59632629 -158.27395934 120.32537606 -158.30098915 118.05455017 C-158.33740032 114.86823959 -158.34227899 111.68329679 -158.33996582 108.49681091 C-158.3579422 107.56244705 -158.37591858 106.62808319 -158.3944397 105.66540527 C-158.34468728 99.31251326 -156.89430358 95.03032365 -152.77233887 90.13352966 C-149.91662598 87.86766052 -149.91662598 87.86766052 -146.79968262 86.09837341 C-146.23592422 85.77115799 -145.67216583 85.44394257 -145.09132385 85.10681152 C-143.30722218 84.07664964 -141.50959412 83.07353876 -139.70983887 82.07102966 C-138.53239236 81.39766983 -137.35595155 80.72254828 -136.18054199 80.04563904 C-133.85891703 78.71168552 -131.53099081 77.39170854 -129.19787598 76.07762146 C-124.85834111 73.61480939 -120.57258132 71.06514288 -116.29187012 68.50169373 C-111.57845812 65.9422014 -108.31865279 65.50724121 -103.11413574 66.78733826 C-93.13276057 69.82729442 -83.62120702 73.78658195 -74.03186035 77.87449646 C-71.92719545 78.76884275 -69.81711503 79.64923384 -67.70593262 80.52806091 C-67.06739853 80.80503311 -66.42886444 81.08200531 -65.77098083 81.36737061 C-63.1608094 82.44665615 -61.24107549 83.18783187 -58.40148926 82.85887146 C-56.76718099 82.2478282 -56.76718099 82.2478282 -55.77233887 81.13352966 C-55.6754836 79.4879748 -55.64718082 77.83832873 -55.6463623 76.18992615 C-55.64255554 75.13470261 -55.63874878 74.07947906 -55.63482666 72.99227905 C-55.63379944 71.84135269 -55.63277222 70.69042633 -55.63171387 69.50462341 C-55.61337738 67.08339011 -55.59380631 64.6621659 -55.57312012 62.24095154 C-55.54420096 58.41161399 -55.52234038 54.58285637 -55.52185059 50.75340271 C-55.51850754 47.06578222 -55.48389064 43.37950933 -55.44421387 39.69212341 C-55.45128357 38.55536667 -55.45835327 37.41860992 -55.46563721 36.24740601 C-55.36016393 29.32554424 -54.55418265 24.34733152 -49.77233887 19.13352966 C-46.96081543 16.92771912 -46.96081543 16.92771912 -43.91296387 15.24681091 C-42.79663574 14.61839294 -41.68030762 13.98997498 -40.53015137 13.34251404 C-39.37257324 12.71667419 -38.21499512 12.09083435 -37.02233887 11.44602966 C-35.88022949 10.80858826 -34.73812012 10.17114685 -33.56140137 9.51438904 C-31.3244807 8.26865563 -29.07914854 7.03788876 -26.82507324 5.82347107 C-24.96951498 4.79626583 -23.13816155 3.72105765 -21.36022949 2.56468201 C-14.69479137 -1.7071486 -7.61498071 -2.37999582 0 0 Z M-4.77233887 19.13352966 C-7.24576385 21.21966101 -8.63411679 22.4251502 -9.26453018 25.65597916 C-9.26084301 26.61095669 -9.25715584 27.56593422 -9.25335693 28.54985046 C-9.25885559 29.64918915 -9.26435425 30.74852783 -9.27001953 31.88117981 C-9.25563843 33.08239471 -9.24125732 34.28360962 -9.22644043 35.52122498 C-9.22702454 36.78977325 -9.22760864 38.05832153 -9.22821045 39.36531067 C-9.22935791 42.84039655 -9.20584429 46.31492993 -9.17791462 49.78988743 C-9.15290585 53.42269653 -9.1505594 57.05551837 -9.14581299 60.68840027 C-9.13338161 67.56617004 -9.10055801 74.44368542 -9.06041503 81.32134318 C-9.0157022 89.15196441 -8.99371154 96.9825978 -8.97363329 104.81331491 C-8.93182535 120.92020207 -8.86147039 137.0268334 -8.77233887 153.13352966 C-5.31487871 153.97051461 -1.85623397 154.80249642 1.60266113 155.63352966 C2.58750488 155.87200623 3.57234863 156.11048279 4.58703613 156.35618591 C5.52805176 156.58177185 6.46906738 156.80735779 7.43859863 157.03977966 C8.30791016 157.24925232 9.17722168 157.45872498 10.07287598 157.67454529 C12.18649271 158.20297406 12.18649271 158.20297406 14.22766113 158.13352966 C14.23130676 157.2197757 14.23495239 156.30602173 14.2387085 155.36457825 C14.27661509 146.74256996 14.3334982 138.12093891 14.41156387 129.49919701 C14.45103033 125.06690897 14.48322279 120.63481936 14.49865723 116.20237732 C14.51382944 111.92274254 14.54828457 107.64365329 14.59597015 103.36426163 C14.61077821 101.73369215 14.61870182 100.10304479 14.61954498 98.47240829 C14.62191825 96.18356799 14.64902359 93.89623093 14.6817627 91.60765076 C14.69064514 90.30637238 14.69952759 89.00509399 14.7086792 87.66438293 C15.41268727 82.87471873 17.35240678 79.58238884 21.19470215 76.61375427 C21.86686768 76.25805359 22.5390332 75.90235291 23.23156738 75.53587341 C23.97213379 75.12659607 24.7127002 74.71731873 25.47570801 74.29563904 C26.23947754 73.89151794 27.00324707 73.48739685 27.79016113 73.07102966 C34.95160224 69.54227873 34.95160224 69.54227873 39.22766113 63.13352966 C39.62056688 60.2846894 39.64730437 57.50557764 39.60266113 54.63352966 C39.6142627 53.88716248 39.62586426 53.14079529 39.63781738 52.37181091 C39.6320166 51.27933044 39.6320166 51.27933044 39.62609863 50.16477966 C39.62271484 49.51058044 39.61933105 48.85638123 39.61584473 48.18235779 C38.91127004 44.46362145 37.19992284 41.88038895 34.21520996 39.58763123 C33.44201416 39.15418396 32.66881836 38.72073669 31.87219238 38.27415466 C30.98483398 37.77077576 30.09747559 37.26739685 29.18322754 36.74876404 C28.20789063 36.21573669 27.23255371 35.68270935 26.22766113 35.13352966 C25.18142578 34.55409607 24.13519043 33.97466248 23.05725098 33.37767029 C19.68686018 31.5265594 16.30333854 29.70185796 12.91516113 27.88352966 C11.76209473 27.25962341 10.60902832 26.63571716 9.42102051 25.99290466 C8.3092041 25.39477966 7.1973877 24.79665466 6.05187988 24.18040466 C5.05245361 23.64254333 4.05302734 23.10468201 3.02331543 22.55052185 C0.46435746 21.25350045 -2.0913536 20.14966261 -4.77233887 19.13352966 Z " fill="#008DC0" transform="translate(244.7723388671875,26.866470336914063)"/>
<path d="M0 0 C1.03837509 -0.00671722 2.07675018 -0.01343445 3.14659119 -0.02035522 C6.55773781 -0.03925939 9.96868717 -0.04325457 13.37988281 -0.04541016 C15.75783366 -0.05183965 18.13578372 -0.05856813 20.51373291 -0.06558228 C25.48655026 -0.07753336 30.45929822 -0.08126495 35.43212891 -0.08007812 C41.81019388 -0.07987421 48.18781689 -0.1072609 54.56577682 -0.14162254 C59.47104957 -0.16382471 64.37621443 -0.16791784 69.28153229 -0.16685867 C71.63391911 -0.16922146 73.9863086 -0.17808288 76.33864594 -0.19352341 C79.62061487 -0.21306237 82.90161001 -0.20739423 86.18359375 -0.1953125 C87.15717331 -0.20655151 88.13075287 -0.21779053 89.13383484 -0.22937012 C95.69390602 -0.16783009 95.69390602 -0.16783009 98.94342041 2.16268921 C101.91164059 6.70784562 100.31703208 12.22131142 99.33300781 17.29052734 C95.37449636 35.4078771 87.72702328 52.38108641 75.33300781 66.29052734 C74.71167969 67.10779297 74.09035156 67.92505859 73.45019531 68.76708984 C71.12505221 71.53838587 68.7074117 73.59608996 65.83300781 75.79052734 C64.89457031 76.52271484 63.95613281 77.25490234 62.98925781 78.00927734 C51.09186204 85.82328865 39.98503215 86.07027393 26.20800781 86.10302734 C24.10829974 86.12459636 22.00860827 86.14783554 19.90893555 86.17260742 C14.03874777 86.23335453 8.16885761 86.25782344 2.29840088 86.2755127 C-1.92794045 86.2915154 -6.15410888 86.31849536 -10.38037109 86.34814453 C-18.70661354 86.40559853 -27.0328205 86.44318833 -35.35921478 86.46996689 C-37.60694112 86.47803614 -39.85464302 86.48875149 -42.10235596 86.49990845 C-45.65576541 86.51652475 -49.20904149 86.52240015 -52.76248741 86.5200386 C-54.71812206 86.52097751 -56.67374424 86.53167626 -58.62934875 86.54257202 C-59.7941124 86.53956085 -60.95887604 86.53654968 -62.15893555 86.53344727 C-63.68930702 86.53558479 -63.68930702 86.53558479 -65.25059509 86.5377655 C-67.66699219 86.29052734 -67.66699219 86.29052734 -69.66699219 84.29052734 C-72.49233003 67.43705861 -63.66035976 47.0529219 -54.29199219 33.41552734 C-50.11516413 27.68568512 -45.63529371 22.3485094 -40.66699219 17.29052734 C-40.05597656 16.66662109 -39.44496094 16.04271484 -38.81542969 15.39990234 C-27.69197913 4.89179161 -15.10440667 -0.01417966 0 0 Z " fill="#1D3667" transform="translate(179.6669921875,370.70947265625)"/>
<path d="M0 0 C0.88847122 -0.00852997 1.77694244 -0.01705994 2.69233704 -0.02584839 C3.65963242 -0.02494202 4.6269278 -0.02403564 5.62353516 -0.02310181 C6.6484758 -0.02981903 7.67341644 -0.03653625 8.72941589 -0.04345703 C12.12385897 -0.06247947 15.51810455 -0.06636421 18.91259766 -0.06851196 C21.27710043 -0.07493986 23.64160241 -0.08166822 26.00610352 -0.08868408 C30.96925701 -0.10066955 35.93234086 -0.10436389 40.89550781 -0.10317993 C47.23254691 -0.10297734 53.5691345 -0.13021186 59.90606689 -0.16472435 C64.79451515 -0.18705249 69.68285608 -0.19101556 74.5713501 -0.18996048 C76.90596056 -0.19231013 79.24057427 -0.20109753 81.57513428 -0.21662521 C103.46050506 -0.34848823 117.7795808 3.39933669 133.72509766 18.89242554 C149.30860507 34.72058 160.45621802 56.76178564 160.91259766 79.20492554 C160.84722109 83.95780211 160.84722109 83.95780211 158.53759766 86.26742554 C156.11447144 86.5146637 156.11447144 86.5146637 153.01367188 86.51034546 C151.84572586 86.51336166 150.67777985 86.51637787 149.47444153 86.51948547 C147.55277412 86.50879784 147.55277412 86.50879784 145.59228516 86.49789429 C144.24545814 86.49720667 142.89863052 86.49730947 141.55180359 86.49815369 C137.92431042 86.49741393 134.29698936 86.48333615 130.66954422 86.46546936 C128.41827841 86.45495208 126.16702123 86.44731688 123.91574097 86.44064331 C114.87108523 86.41322418 105.82674192 86.36312267 96.7822876 86.2973938 C92.81712025 86.26866528 88.85193134 86.24659442 84.88671875 86.22494507 C79.30422984 86.19135949 73.72248293 86.13498305 68.14044189 86.05688477 C66.13282215 86.03082879 64.12511351 86.01083174 62.11737061 85.99725342 C43.85497041 85.85786491 31.82700341 82.4228847 18.35009766 69.45492554 C2.91734441 53.42027084 -7.00028954 31.3761936 -9.46240234 9.26742554 C-9.28271484 5.45492554 -9.28271484 5.45492554 -8.46240234 2.26742554 C-5.6418027 0.3855536 -3.34610988 0.01456922 0 0 Z " fill="#FCD411" transform="translate(304.46240234375,370.7325744628906)"/>
<path d="M0 0 C17.82 0 35.64 0 54 0 C54.4375 19.4375 54.4375 19.4375 54.56811523 25.57983398 C54.6062221 27.17692983 54.64468985 28.77401712 54.68359375 30.37109375 C54.70006958 31.20805786 54.71654541 32.04502197 54.73352051 32.90734863 C54.46163066 36.76739474 54.46163066 36.76739474 56 40 C61.1761903 39.63252506 61.1761903 39.63252506 66 38 C66.33 25.46 66.66 12.92 67 0 C83.77885191 -0.08021762 83.77885191 -0.08021762 90.99023438 -0.09765625 C95.89026276 -0.10956216 100.79021563 -0.12357074 105.69018555 -0.15087891 C109.64539601 -0.17278116 113.60052538 -0.18460485 117.55579185 -0.18975449 C119.0566911 -0.19341931 120.55758645 -0.20057475 122.0584507 -0.21146011 C130.56573742 -0.27064692 138.68029718 0.05057368 147 2 C147.00808685 3.1333931 147.01617371 4.26678619 147.02450562 5.43452454 C147.10190776 16.10289626 147.18963195 26.77113951 147.28752708 37.43934345 C147.33752541 42.92429882 147.38385514 48.40923459 147.421875 53.89428711 C147.4586831 59.18522701 147.50503084 64.47600436 147.55806351 69.76680565 C147.57663128 71.78783512 147.59173037 73.80889946 147.60334396 75.82998085 C147.62016565 78.65546019 147.64919073 81.48056532 147.68115234 84.3059082 C147.68331253 85.14603958 147.68547272 85.98617096 147.68769836 86.85176086 C147.74410574 90.74150344 147.7935391 92.69030865 150 96 C157.46521682 95.51596332 164.36364789 94.05184482 171.5625 92.0625 C173.52171254 91.53099085 175.48134339 91.00102102 177.44140625 90.47265625 C178.37227051 90.2214502 179.30313477 89.97024414 180.26220703 89.71142578 C184.15404128 88.70011804 188.06788787 87.8399868 192 87 C192 91.62 192 96.24 192 101 C180.62538044 104.55533222 169.25245817 107.78875854 157.63012695 110.43823242 C156.79054443 110.63006104 155.95096191 110.82188965 155.0859375 111.01953125 C154.3439209 111.18557861 153.6019043 111.35162598 152.83740234 111.52270508 C150.92228753 111.95220227 150.92228753 111.95220227 149 113 C140.33060195 114.20906875 132.88880851 111.28186429 124.890625 108.29296875 C123.55212705 107.80561476 122.21314815 107.3195799 120.87371826 106.83479309 C118.08324782 105.82125137 115.29679038 104.79762131 112.51318359 103.76538086 C108.95861768 102.4472697 105.39810979 101.14627554 101.83490372 99.85172558 C98.41401433 98.60833067 94.9958346 97.35757294 91.578125 96.10546875 C90.93381783 95.86985922 90.28951065 95.63424969 89.62567902 95.39150047 C87.78968465 94.7183331 85.95583401 94.03932779 84.12207031 93.36010742 C83.08189758 92.97594162 82.04172485 92.59177582 80.97003174 92.19596863 C75.34331505 89.93020946 71.45539863 88.11910908 68 83 C67.04831317 80.14493951 66.8099054 78.09062718 66.68359375 75.11328125 C66.64169922 74.17548828 66.59980469 73.23769531 66.55664062 72.27148438 C66.51732422 71.29501953 66.47800781 70.31855469 66.4375 69.3125 C66.39431641 68.32443359 66.35113281 67.33636719 66.30664062 66.31835938 C66.20058346 63.87904454 66.09852286 61.43962887 66 59 C65.33846924 59.30679688 64.67693848 59.61359375 63.99536133 59.9296875 C57.62543427 62.88385657 52.01678264 64.04586028 45 63 C41.47182809 61.52443685 38.52586352 59.48770294 35.4375 57.25 C33.70577252 56.05592671 31.97400066 54.86191777 30.2421875 53.66796875 C29.37561523 53.05743652 28.50904297 52.4469043 27.61621094 51.81787109 C25.07023579 50.04880325 22.4907341 48.35187124 19.8828125 46.67578125 C19.07142822 46.15145508 18.26004395 45.62712891 17.42407227 45.08691406 C15.89346896 44.09889721 14.36025261 43.11491207 12.82397461 42.13574219 C6.48958056 37.97021758 2.88476113 34.21190283 0 27 C0 18.09 0 9.18 0 0 Z " fill="#004B32" transform="translate(87,229)"/>
<path d="M0 0 C0.76248047 -0.01224609 1.52496094 -0.02449219 2.31054688 -0.03710938 C4.27095454 -0.0423094 6.23094383 0.0645641 8.1875 0.1875 C10.75891248 2.75891248 10.42749292 4.46225737 10.44744873 7.9669342 C10.44182922 8.77609787 10.43620972 9.58526154 10.43041992 10.41894531 C10.43231827 11.27147385 10.43421661 12.12400238 10.43617249 13.00236511 C10.43989525 15.84021021 10.4291379 18.67780231 10.41796875 21.515625 C10.41677551 23.50030487 10.41632409 25.48498531 10.4165802 27.46966553 C10.4150117 31.64957168 10.40670715 35.82939266 10.39331055 40.00927734 C10.37654048 45.30269357 10.37248991 50.59601423 10.37325573 55.88945389 C10.37297989 60.0028165 10.36743005 64.11615921 10.36025429 68.22951508 C10.35712133 70.17625529 10.35511315 72.12299771 10.35436058 74.0697403 C10.34921086 80.443468 10.29357197 86.81465894 10.1875 93.1875 C10.17378483 94.15987106 10.16006966 95.13224213 10.14593887 96.13407898 C10.09512356 99.09006884 10.01529494 102.04393748 9.92700195 104.99902344 C9.90682526 106.33266119 9.90682526 106.33266119 9.88624096 107.69324112 C9.37858363 121.41821716 0.93846211 132.28168183 -8.71484375 141.4296875 C-34.88238434 165.25174838 -73.41216277 179.75733642 -108.62890625 180.55078125 C-111.66747633 180.04525886 -113.38434908 179.09267981 -115.8125 177.1875 C-116.38012695 174.27661133 -116.38012695 174.27661133 -116.30078125 170.76953125 C-116.28466797 169.51591797 -116.26855469 168.26230469 -116.25195312 166.97070312 C-116.21005859 165.66037109 -116.16816406 164.35003906 -116.125 163 C-116.09991661 161.66475471 -116.07710348 160.32946471 -116.05664062 158.99414062 C-115.99761522 155.72413293 -115.91531476 152.45637667 -115.8125 149.1875 C-115.15878418 149.02668945 -114.50506836 148.86587891 -113.83154297 148.70019531 C-98.63626719 144.96507149 -98.63626719 144.96507149 -83.5 141 C-82.45199219 140.71769531 -81.40398437 140.43539062 -80.32421875 140.14453125 C-77.72848855 139.15548942 -76.48970578 138.37492372 -74.8125 136.1875 C-73.94830777 133.59492331 -73.63669068 131.84712293 -73.49609375 129.17578125 C-73.43325195 128.03979492 -73.43325195 128.03979492 -73.36914062 126.88085938 C-73.32982422 126.09517578 -73.29050781 125.30949219 -73.25 124.5 C-73.18522461 123.30407227 -73.18522461 123.30407227 -73.11914062 122.08398438 C-73.01322632 120.11868553 -72.91237449 118.15311504 -72.8125 116.1875 C-69.91764382 115.01836367 -67.02169368 113.85206996 -64.125 112.6875 C-63.23756104 112.32946289 -62.35012207 111.97142578 -61.43579102 111.60253906 C-56.61893326 109.67022685 -51.78974345 107.79478674 -46.9140625 106.015625 C-45.49226685 105.49258789 -45.49226685 105.49258789 -44.04174805 104.95898438 C-42.20851917 104.28821659 -40.371497 103.62770919 -38.53051758 102.97851562 C-37.69415771 102.67107422 -36.85779785 102.36363281 -35.99609375 102.046875 C-35.25931396 101.78358398 -34.52253418 101.52029297 -33.76342773 101.24902344 C-30.30542468 99.36748204 -29.03035878 96.84107633 -27.8125 93.1875 C-27.6921689 90.3434317 -27.62711196 87.52205053 -27.60717773 84.67700195 C-27.59727814 83.80849609 -27.58737854 82.93999023 -27.57717896 82.04516602 C-27.54557056 79.17206557 -27.52080908 76.29894858 -27.49609375 73.42578125 C-27.47552366 71.43466256 -27.45452717 69.44354823 -27.43312073 67.45243835 C-27.37790579 62.20982392 -27.32849392 56.96717012 -27.28027344 51.7244873 C-27.23005423 46.37553398 -27.17437035 41.02663789 -27.11914062 35.67773438 C-27.0115661 25.18103846 -26.91011952 14.68429288 -26.8125 4.1875 C-25.05544276 3.69973384 -23.2977511 3.21425265 -21.53979492 2.72973633 C-20.56104904 2.45913895 -19.58230316 2.18854156 -18.57389832 1.90974426 C-12.38737702 0.29165842 -6.3503663 0.00550769 0 0 Z " fill="#99B63B" transform="translate(409.8125,176.8125)"/>
<path d="M0 0 C0.06954598 11.37011129 0.12283473 22.74017188 0.15543652 34.11045265 C0.17108465 39.3902806 0.19230755 44.6699629 0.22631836 49.94970703 C0.25894192 55.04605921 0.27685943 60.14227139 0.28463173 65.23871994 C0.29016983 67.18196186 0.30098441 69.12519621 0.31719017 71.06837845 C0.33900418 73.79266093 0.34196525 76.51636673 0.34057617 79.24072266 C0.351362 80.04201599 0.36214783 80.84330933 0.3732605 81.66888428 C0.34276985 87.20433361 -0.5854393 91.58011776 -4.66162109 95.6652832 C-8.10181359 97.62890112 -11.70660237 98.97775154 -15.4140625 100.35546875 C-16.22491302 100.66196854 -17.03576355 100.96846832 -17.8711853 101.28425598 C-19.57962871 101.9285137 -21.28926378 102.56961913 -23 103.20776367 C-25.6252969 104.18761081 -28.24645432 105.17794147 -30.8671875 106.16992188 C-32.52841291 106.79489031 -34.18986365 107.4192602 -35.8515625 108.04296875 C-37.03125107 108.48820137 -37.03125107 108.48820137 -38.23477173 108.94242859 C-43.76790481 111 -43.76790481 111 -46 111 C-45.94779297 112.75376953 -45.94779297 112.75376953 -45.89453125 114.54296875 C-45.86638284 116.09113141 -45.83908381 117.63930968 -45.8125 119.1875 C-45.78736328 119.95642578 -45.76222656 120.72535156 -45.73632812 121.51757812 C-45.67582142 126.21693236 -46.00646592 129.15117047 -49 133 C-51.7402414 135.7402414 -54.84307518 136.21972972 -58.4921875 137.1640625 C-59.23453644 137.36099701 -59.97688538 137.55793152 -60.74172974 137.76083374 C-62.31278854 138.1758985 -63.88474845 138.5875651 -65.45751953 138.99609375 C-67.86083716 139.62131554 -70.2605837 140.25901127 -72.66015625 140.8984375 C-74.18730276 141.3002296 -75.7146406 141.70129532 -77.2421875 142.1015625 C-77.95897675 142.2921524 -78.67576599 142.48274231 -79.41427612 142.67910767 C-82.76205377 143.54210302 -85.51271938 144 -89 144 C-89.63953921 107.1428635 -89.63953921 107.1428635 -86 93 C-85.80132324 92.20384277 -85.60264648 91.40768555 -85.39794922 90.58740234 C-81.51359846 75.42534107 -75.4465409 62.20852731 -67.125 49 C-66.7436792 48.39365723 -66.3623584 47.78731445 -65.96948242 47.16259766 C-65.03699487 45.73589798 -64.02536544 44.36148108 -63 43 C-62.34 43 -61.68 43 -61 43 C-60.66935547 42.19369141 -60.66935547 42.19369141 -60.33203125 41.37109375 C-58.54948697 38.19806038 -56.1640849 35.69695486 -53.6875 33.0625 C-53.21376953 32.55009766 -52.74003906 32.03769531 -52.25195312 31.50976562 C-39.96340219 18.27982091 -19.55999304 0 0 0 Z " fill="#02652C" transform="translate(383,182)"/>
<path d="M0 0 C5.94 0 11.88 0 18 0 C19.2277501 3.80422357 20.45485398 7.60864721 21.68041992 11.41357422 C22.2986205 13.33193013 22.91785312 15.24995336 23.53710938 17.16796875 C25.57603272 23.50023475 27.58036298 29.83300134 29.41088867 36.22900391 C29.85443853 38.00369469 29.85443853 38.00369469 31 39 C31.35827881 37.88963379 31.71655762 36.77926758 32.08569336 35.63525391 C33.41286298 31.52356845 34.74212266 27.41256125 36.07202148 23.30175781 C36.64778956 21.52101842 37.22298736 19.74009454 37.79760742 17.95898438 C38.62269343 15.40185845 39.44981457 12.84539866 40.27734375 10.2890625 C40.53466782 9.49005524 40.79199188 8.69104797 41.05711365 7.86782837 C42.88612829 2.22774341 42.88612829 2.22774341 44 0 C49.61 0 55.22 0 61 0 C61 18.81 61 37.62 61 57 C57.04 57 53.08 57 49 57 C49 44.46 49 31.92 49 19 C44.71 31.54 40.42 44.08 36 57 C32.04 57 28.08 57 24 57 C20.37 45.45 16.74 33.9 13 22 C12.67 33.55 12.34 45.1 12 57 C8.04 57 4.08 57 0 57 C0 38.19 0 19.38 0 0 Z " fill="#1E3767" transform="translate(596,301)"/>
<path d="M0 0 C5.61 0 11.22 0 17 0 C18.99761557 5.2186755 20.83309272 10.44271505 22.48046875 15.78125 C22.69818436 16.48020386 22.91589996 17.17915771 23.14021301 17.89929199 C23.82481303 20.09886011 24.50621351 22.29940359 25.1875 24.5 C25.65538624 26.00527447 26.12348338 27.5104834 26.59179688 29.015625 C27.73029968 32.67633159 28.86593721 36.33791561 30 40 C30.35304199 38.93040039 30.70608398 37.86080078 31.06982422 36.75878906 C32.38251729 32.78446448 33.69920346 28.81147238 35.01708984 24.83886719 C35.58653738 23.12047741 36.15490656 21.40172987 36.72216797 19.68261719 C37.53849461 17.20933332 38.35871161 14.7373689 39.1796875 12.265625 C39.43185028 11.49881409 39.68401306 10.73200317 39.94381714 9.94195557 C41.10353574 6.4620701 42.35422444 3.29155113 44 0 C49.61 0 55.22 0 61 0 C61 18.81 61 37.62 61 57 C57.04 57 53.08 57 49 57 C48.67 45.12 48.34 33.24 48 21 C44.04 32.88 40.08 44.76 36 57 C32.04 57 28.08 57 24 57 C20.75921521 49.24839313 18.17092461 41.41643977 15.75 33.375 C14.5125 29.29125 13.275 25.2075 12 21 C12 32.88 12 44.76 12 57 C8.04 57 4.08 57 0 57 C0 38.19 0 19.38 0 0 Z " fill="#1E3667" transform="translate(575,206)"/>
<path d="M0 0 C0.06955307 9.1708584 0.12283813 18.3416258 0.15543652 27.51269054 C0.17108322 31.77133192 0.19230318 36.02979266 0.22631836 40.28833008 C0.25894752 44.39913518 0.27686051 48.50976668 0.28463173 52.6206913 C0.29016887 54.18796839 0.30098165 55.75523613 0.31719017 57.32243919 C0.33901228 59.52009893 0.34196501 61.71704403 0.34057617 63.91479492 C0.34723801 65.16499924 0.35389984 66.41520355 0.36076355 67.70329285 C-0.03467502 71.31686516 -0.78045119 73.14684038 -3 76 C-4.69140625 77.23144531 -4.69140625 77.23144531 -6.5625 78.078125 C-7.26632812 78.39845703 -7.97015625 78.71878906 -8.6953125 79.04882812 C-12.75918241 80.72603545 -16.86108513 82.26863723 -21 83.75 C-21.87011719 84.06582031 -22.74023438 84.38164062 -23.63671875 84.70703125 C-25.75629631 85.47566927 -27.87735024 86.23989655 -30 87 C-30.3024435 78.30737381 -30.53278695 69.61658079 -30.67355824 60.9198246 C-30.74115893 56.88035767 -30.83265844 52.84451129 -30.98071289 48.80712891 C-31.12295319 44.90344722 -31.19988034 41.00322328 -31.23340416 37.0971489 C-31.25725837 35.61441966 -31.30385273 34.13186108 -31.37449074 32.65062332 C-31.88925648 21.39916238 -31.88925648 21.39916238 -28.73826981 17.39773178 C-25.20801567 13.98661446 -21.21622231 11.47927909 -17 9 C-16.12251602 8.45089966 -15.24503204 7.90179932 -14.34095764 7.33605957 C-12.34442015 6.10333797 -10.32131532 4.9764137 -8.25 3.875 C-7.55390625 3.49085938 -6.8578125 3.10671875 -6.140625 2.7109375 C-1.18348214 0 -1.18348214 0 0 0 Z " fill="#99B53B" transform="translate(367,187)"/>
<path d="M0 0 C5.28 0 10.56 0 16 0 C19.18482118 3.31810664 20.24443984 4.98230708 22 9 C23.17788009 11.08915905 24.37152255 13.16948454 25.578125 15.2421875 C26.80584679 17.45103739 28.02975398 19.66201146 29.25 21.875 C30.48333532 24.10213857 31.71766392 26.32872745 32.953125 28.5546875 C33.49098633 29.52905762 34.02884766 30.50342773 34.58300781 31.50732422 C35.64862062 33.38187741 36.80391918 35.20587877 38 37 C38.33 24.79 38.66 12.58 39 0 C42.96 0 46.92 0 51 0 C51 18.81 51 37.62 51 57 C45.39 57 39.78 57 34 57 C32.49759766 54.28523438 32.49759766 54.28523438 30.96484375 51.515625 C29.96882642 49.71808378 28.97234881 47.92079845 27.97583008 46.12353516 C27.29566384 44.89626129 26.61595895 43.6687316 25.93676758 42.44091797 C24.94741051 40.65260564 23.95626705 38.8652925 22.96484375 37.078125 C22.3730835 36.00981445 21.78132324 34.94150391 21.17163086 33.84082031 C18.16859529 28.52954931 15.07434925 23.27031299 12 18 C12 30.87 12 43.74 12 57 C8.04 57 4.08 57 0 57 C0 38.19 0 19.38 0 0 Z " fill="#1E3767" transform="translate(985,301)"/>
<path d="M0 0 C5.61 0 11.22 0 17 0 C18.50240234 2.60648437 18.50240234 2.60648437 20.03515625 5.265625 C21.03147247 6.99350208 22.02779105 8.7213778 23.02416992 10.44921875 C24.03390074 12.20040015 25.04332207 13.95175998 26.05273438 15.703125 C30.3464735 23.14842634 34.66181727 30.58051493 39 38 C38.99476318 37.31075439 38.98952637 36.62150879 38.98413086 35.91137695 C38.82381769 11.61480029 38.82381769 11.61480029 40 0 C43.63 0 47.26 0 51 0 C51 18.81 51 37.62 51 57 C45.72 57 40.44 57 35 57 C31.34586448 52.99753862 29.67535543 50.60329846 27.5 45.875 C26.97148438 44.84761719 26.44296875 43.82023437 25.8984375 42.76171875 C24.23341543 39.52417584 22.61733552 36.26162664 21 33 C17.04 26.07 17.04 26.07 13 19 C12.67 31.54 12.34 44.08 12 57 C8.04 57 4.08 57 0 57 C0 38.19 0 19.38 0 0 Z " fill="#1E3768" transform="translate(1198,112)"/>
<path d="M0 0 C5.28 0 10.56 0 16 0 C21.21377499 6.81266598 21.21377499 6.81266598 22.6953125 10.19921875 C25.40417162 16.02363898 28.75627944 21.43817768 32.0625 26.9375 C34.021875 30.258125 35.98125 33.57875 38 37 C38.33 24.79 38.66 12.58 39 0 C42.63 0 46.26 0 50 0 C50 18.81 50 37.62 50 57 C44.72 57 39.44 57 34 57 C33.0821875 55.34613281 32.164375 53.69226563 31.21875 51.98828125 C29.97931762 49.76293675 28.73972569 47.53768111 27.5 45.3125 C26.59894531 43.68731445 26.59894531 43.68731445 25.6796875 42.02929688 C25.07382813 40.94326172 24.46796875 39.85722656 23.84375 38.73828125 C23.29912109 37.75899658 22.75449219 36.77971191 22.19335938 35.77075195 C18.90409977 30.11596404 15.4285689 24.57142446 12 19 C11.67 31.54 11.34 44.08 11 57 C7.37 57 3.74 57 0 57 C0 38.19 0 19.38 0 0 Z " fill="#1D3667" transform="translate(1068,112)"/>
<path d="M0 0 C31.76470588 0 31.76470588 0 39 5.125 C41.71309065 9.02506781 42.29056008 12.2864698 42 17 C40.98609033 20.9941896 39.24818043 24.37052061 36 27 C36.78375 27.5775 37.5675 28.155 38.375 28.75 C41.49234346 31.42200868 42.78175755 33.2824036 43.30078125 37.3671875 C43.32550982 42.65910179 43.1049726 46.50314312 40 51 C34.70608786 56.15083344 29.29790836 57.25927353 22.0703125 57.1953125 C20.90773926 57.19031738 19.74516602 57.18532227 18.54736328 57.18017578 C17.0879834 57.16196777 15.62860352 57.14375977 14.125 57.125 C9.46375 57.08375 4.8025 57.0425 0 57 C0 38.19 0 19.38 0 0 Z M13 11 C13 14.63 13 18.26 13 22 C14.93681161 22.08107583 16.8745934 22.13922475 18.8125 22.1875 C19.89144531 22.22230469 20.97039063 22.25710937 22.08203125 22.29296875 C24.97990222 22.2445665 24.97990222 22.2445665 26.86328125 20.6796875 C28.62444849 18.07727542 28.38896226 16.04687103 28 13 C24.47320901 10.64880601 22.97120515 10.78556548 18.8125 10.875 C17.72582031 10.89304687 16.63914062 10.91109375 15.51953125 10.9296875 C14.68808594 10.95289062 13.85664062 10.97609375 13 11 Z M13 33 C13 37.29 13 41.58 13 46 C21.1215703 46.74916019 21.1215703 46.74916019 28.3125 43.8125 C30.22509189 41.17149859 30.22509189 41.17149859 30 38.375 C28.90266515 35.76882974 28.27190635 34.6692533 26 33 C21.63769798 32.59256208 17.39034742 32.86959364 13 33 Z " fill="#1E3668" transform="translate(646,112)"/>
<path d="M0 0 C6.25157922 5.39909114 8.47594584 12.2282221 9.52734375 20.26171875 C10.25297122 30.407773 8.93562017 39.27351159 2.1796875 47.22265625 C-3.48408242 52.58348033 -10.00471827 54.48993405 -17.6875 54.75 C-24.68472217 54.52459929 -30.60719394 53.02052076 -36.5625 49.3125 C-43.98497377 41.19956355 -45.56526725 32.39953059 -45.46875 21.734375 C-44.96015599 13.92382418 -42.63324164 6.38924425 -36.71875 0.97265625 C-25.75661497 -7.62265417 -11.73513001 -5.86756501 0 0 Z M-29.625 12.0625 C-32.92166 18.5450079 -32.319565 28.20489827 -30.5546875 35.0859375 C-29.08817186 38.40100227 -27.37651064 40.28503688 -24.4375 42.375 C-19.69030853 43.86431497 -16.05991359 44.23882239 -11.5 42.0625 C-7.16190454 38.80892841 -5.7621546 36.69274367 -4.25 31.375 C-3.57015144 24.17920027 -3.49824786 17.67258394 -7.25 11.375 C-9.60499907 8.57843861 -10.76313533 7.53728822 -14.25 6.375 C-21.00836453 5.86493475 -25.07609649 6.91505655 -29.625 12.0625 Z " fill="#1E3768" transform="translate(620.25,115.625)"/>
<path d="M0 0 C6.4031509 4.68684241 10.63660267 10.50220209 11.89453125 18.38671875 C12.81243108 29.37856923 11.78202389 38.50884715 6.26953125 48.26171875 C-1.59502121 55.29842358 -9.5948856 56.35735465 -19.80859375 55.86328125 C-26.40674184 55.29190115 -31.2751617 53.22891785 -35.96484375 48.51953125 C-41.38569647 41.88544006 -42.47870027 34.85922263 -42.41796875 26.51171875 C-42.4130542 25.71668945 -42.40813965 24.92166016 -42.40307617 24.10253906 C-42.22577809 15.23945342 -40.55862368 8.69321107 -34.10546875 2.38671875 C-24.95257771 -4.03058913 -10.04319141 -5.47286721 0 0 Z M-25.10546875 11.38671875 C-29.36647074 18.53911495 -30.13938014 25.75277785 -28.64453125 33.8984375 C-27.53971413 37.83028666 -26.46643358 40.02575392 -23.54296875 42.94921875 C-18.01999218 45.25882714 -12.77924994 45.41072006 -7.16796875 43.26171875 C-2.00806452 38.57089672 -1.49620276 33.00561412 -1.109375 26.35546875 C-1.09989546 19.1510204 -3.09895653 14.51839378 -8.10546875 9.38671875 C-13.29374732 6.79257947 -20.84361042 7.51230208 -25.10546875 11.38671875 Z " fill="#1E3768" transform="translate(931.10546875,113.61328125)"/>
<path d="M0 0 C6.8351601 7.23821622 7.72553172 15.48071758 7.63012695 25.11450195 C7.31099649 34.01775089 5.49363669 40.75974725 -1.09765625 47.05859375 C-8.92889265 53.25515459 -17.10537728 53.1915124 -26.78515625 52.49609375 C-33.33288354 51.32495553 -38.56391785 47.55784422 -42.78515625 42.49609375 C-48.23997945 33.45579688 -47.99768109 21.79128451 -46.3125 11.65234375 C-44.56308627 5.53463345 -41.13865865 0.50575183 -35.640625 -2.7890625 C-24.45067587 -8.10762435 -9.86725953 -8.31268035 0 0 Z M-28.78515625 7.49609375 C-33.56703847 13.5096729 -34.42593919 20.07962453 -33.78515625 27.49609375 C-32.8499324 32.38620487 -31.43404684 35.72059036 -28.22265625 39.55859375 C-23.60405429 42.16180577 -19.96999436 42.51620011 -14.78515625 41.49609375 C-10.51445362 39.08897045 -8.59668659 36.67582665 -6.91015625 32.18359375 C-4.70237683 24.21981798 -5.47421542 17.03916459 -8.78515625 9.49609375 C-11.62678927 6.16732364 -13.39565238 5.59032856 -17.66015625 4.55859375 C-22.03485547 4.23668192 -25.01123992 5.1736837 -28.78515625 7.49609375 Z " fill="#1E3768" transform="translate(815.78515625,211.50390625)"/>
<path d="M0 0 C27 0 27 0 35 4 C39.7308223 9.09473171 40.35226757 12.44225522 40.28125 19.2421875 C39.65114498 25.42071728 35.18543777 28.84926736 31 33 C31.66386719 33.9178125 32.32773438 34.835625 33.01171875 35.78125 C46 53.80279714 46 53.80279714 46 57 C41.27333469 58.19565054 36.55326224 59.0936517 32 57 C26.20962701 51.18483547 22.63524348 43.27048697 19 36 C17.02 35.67 15.04 35.34 13 35 C13 42.26 13 49.52 13 57 C8.71 57 4.42 57 0 57 C0 38.19 0 19.38 0 0 Z M13 10 C13 14.95 13 19.9 13 25 C19.67575224 24.83366975 19.67575224 24.83366975 25.625 22.3125 C27.43733181 19.2644874 27.593328 17.485802 27 14 C24.0688894 11.17645309 21.75300755 10.57585576 17.75 10.3125 C16.1825 10.209375 14.615 10.10625 13 10 Z " fill="#1E3668" transform="translate(1105,301)"/>
<path d="M0 0 C-0.60698743 4.12751449 -2.03810791 7.3321148 -4 11 C-4.928125 10.67 -5.85625 10.34 -6.8125 10 C-13.02812842 8.26012835 -20.10527853 7.627684 -26 10.625 C-30.75765968 14.39148058 -32.01290052 18.01726002 -32.8125 23.875 C-33.24880767 29.91967916 -32.45746277 34.60559688 -29.25 39.875 C-25.27329345 43.63077841 -21.41732145 44.10007541 -16.125 44.125 C-14.083125 44.063125 -14.083125 44.063125 -12 44 C-12 40.37 -12 36.74 -12 33 C-15.63 33 -19.26 33 -23 33 C-23 29.37 -23 25.74 -23 22 C-15.41 22 -7.82 22 0 22 C0 31.9 0 41.8 0 52 C-11.32487837 56.24682939 -23.10656834 57.97572412 -34.5078125 52.87890625 C-40.67555875 49.28614317 -43.63650455 44.65788227 -46 38 C-48.27431907 28.96103958 -48.08520322 18.4746237 -44 10 C-39.74025998 3.49769844 -34.54990447 -0.16236497 -27.2421875 -2.58203125 C-18.12027137 -4.28245812 -8.49849686 -3.64221294 0 0 Z " fill="#1E3768" transform="translate(1208,303)"/>
<path d="M0 0 C30.16666667 0 30.16666667 0 36 5 C39.04339847 9.33484058 40.68455742 13.65819238 40.390625 18.98046875 C39.47191607 23.73019391 37.38739549 27.69421601 33.875 31 C32 32 32 32 30 32 C30.34256836 32.50861572 30.68513672 33.01723145 31.03808594 33.54125977 C32.61123068 35.87999807 34.18063383 38.22122466 35.75 40.5625 C36.28882813 41.36236328 36.82765625 42.16222656 37.3828125 42.98632812 C40.44891581 47.56678734 43.33233183 52.17618256 46 57 C40.90956149 58.18915982 35.90756548 59.1431699 31 57 C25.71538175 51.87117344 21.93832109 44.70738041 19 38 C19 37.34 19 36.68 19 36 C17.02 36 15.04 36 13 36 C13 42.93 13 49.86 13 57 C8.71 57 4.42 57 0 57 C0 38.19 0 19.38 0 0 Z M13 11 C13 15.62 13 20.24 13 25 C19.47747508 25.60407835 19.47747508 25.60407835 25.125 22.875 C27.26187772 20.13500227 27.26187772 20.13500227 27.125 16.875 C26.21144569 13.9134982 26.21144569 13.9134982 23.9375 12.125 C20.06136357 10.64052222 17.1351269 10.78973931 13 11 Z " fill="#1D3667" transform="translate(840,206)"/>
<path d="M0 0 C-0.62567104 4.38577176 -1.50209265 7.30744131 -4 11 C-4.556875 10.855625 -5.11375 10.71125 -5.6875 10.5625 C-12.13380489 8.99447989 -17.8340553 7.84321251 -24.25 10.1875 C-29.1928553 13.44529099 -31.51194617 16.90631271 -32.75 22.75390625 C-33.45988413 29.13177145 -32.76141015 35.68214427 -29 41 C-23.72470934 44.95646799 -18.31494092 44.23103442 -12 44 C-12 40.37 -12 36.74 -12 33 C-15.63 33 -19.26 33 -23 33 C-23 29.7 -23 26.4 -23 23 C-15.41 23 -7.82 23 0 23 C0 32.9 0 42.8 0 53 C-25.50943396 58.88679245 -25.50943396 58.88679245 -36.96484375 51.78125 C-42.64913985 47.45493584 -44.98281388 41.89921345 -46.75 35.125 C-47.59915147 24.51060663 -47.39728862 14.25600859 -40.50390625 5.53125 C-29.40518156 -5.76926969 -13.92943796 -4.02086869 0 0 Z " fill="#1E3768" transform="translate(508,114)"/>
<path d="M0 0 C2.70161921 2.44017219 2.96496417 3.7297236 3.4375 7.375 C2.89945673 11.83307285 1.95492357 13.61264859 -1 17 C-8.72997712 23 -8.72997712 23 -12 23 C-11.04663979 24.31611677 -10.08714226 25.62778961 -9.125 26.9375 C-8.59132813 27.66839844 -8.05765625 28.39929688 -7.5078125 29.15234375 C-6.11987896 31.11098235 -6.11987896 31.11098235 -4 32 C-3.01 28.7 -2.02 25.4 -1 22 C2.3 22 5.6 22 9 22 C8.62964591 28.78982507 6.59523599 33.26884891 3 39 C3.825 39.350625 4.65 39.70125 5.5 40.0625 C6.325 40.701875 7.15 41.34125 8 42 C8.4375 45.5625 8.4375 45.5625 8 49 C7.34 49.66 6.68 50.32 6 51 C1.86169011 50.69903201 -0.51847024 50.32101984 -4 48 C-7.14745775 48.27977402 -9.80085468 48.92591907 -12.76171875 50.02734375 C-16.31655339 51.09508057 -19.29379923 51.30030855 -23 51.3125 C-24.175625 51.32925781 -25.35125 51.34601563 -26.5625 51.36328125 C-31.43322111 50.84853459 -34.70519141 49.12443904 -38.375 45.9375 C-40.75866428 41.62856842 -40.7589097 37.81675338 -40 33 C-37.61379465 28.13581218 -34.28762393 25.16911334 -30 22 C-29.34 22 -28.68 22 -28 22 C-28.23976563 21.3709375 -28.47953125 20.741875 -28.7265625 20.09375 C-30.88211727 13.8707571 -31.50752395 10.16432972 -29 4 C-22.21165241 -4.92182826 -9.2370796 -5.2783312 0 0 Z M-19 8 C-19.41666667 11.5 -19.41666667 11.5 -19 15 C-18.34 15.66 -17.68 16.32 -17 17 C-11.84831608 14.60451927 -11.84831608 14.60451927 -8.5625 10.25 C-8.376875 9.5075 -8.19125 8.765 -8 8 C-9.87773264 5.69253586 -9.87773264 5.69253586 -12.9375 5.75 C-16.17282787 5.76482246 -16.17282787 5.76482246 -19 8 Z M-24 29 C-26.01187469 31.01187469 -27.57361947 32.59439791 -29 35 C-28.92087652 38.48143326 -28.46645256 39.53354744 -26 42 C-23.89250534 42.28082344 -23.89250534 42.28082344 -21.5625 42.1875 C-20.78003906 42.18105469 -19.99757813 42.17460937 -19.19140625 42.16796875 C-16.82200323 42.07555669 -16.82200323 42.07555669 -14 41 C-15.40191353 38.00745382 -17.03367489 35.4045389 -19 32.75 C-19.515625 32.04359375 -20.03125 31.3371875 -20.5625 30.609375 C-21.036875 30.07828125 -21.51125 29.5471875 -22 29 C-22.66 29 -23.32 29 -24 29 Z " fill="#008EC1" transform="translate(893,305)"/>
<path d="M0 0 C0.66 0 1.32 0 2 0 C2.09272126 9.69236742 2.16377561 19.38458193 2.20724869 29.07729626 C2.22811471 33.57813888 2.25641412 38.07867784 2.30175781 42.5793457 C2.34525108 46.92358188 2.36914452 51.26752616 2.37950897 55.61196327 C2.38689413 57.26857409 2.4013158 58.92516911 2.42292023 60.5816555 C2.45200152 62.90398935 2.45595419 65.22512049 2.45410156 67.54760742 C2.47567322 68.57260094 2.47567322 68.57260094 2.49768066 69.61830139 C2.46794159 73.06852469 2.04485697 74.9292344 0.18133545 77.86909485 C-2.61449278 80.60028632 -5.52281613 81.6588686 -9.1875 82.75 C-10.18245483 83.06457153 -10.18245483 83.06457153 -11.19750977 83.38549805 C-16.15616516 84.89512643 -20.83800278 85.72831594 -26 86 C-26.92948986 56.87598448 -19.65269503 30.64663534 -4.125 6 C-3.7436792 5.39365723 -3.3623584 4.78731445 -2.96948242 4.16259766 C-2.03699487 2.73589798 -1.02536544 1.36148108 0 0 Z " fill="#9AB63B" transform="translate(320,225)"/>
<path d="M0 0 C1.39456452 0.00667256 2.78911118 0.01863093 4.18359375 0.03515625 C4.89451172 0.03966797 5.60542969 0.04417969 6.33789062 0.04882812 C8.09899388 0.06064761 9.86005411 0.07858362 11.62109375 0.09765625 C14.41383279 6.94806387 17.02646216 13.84504949 19.51171875 20.8125 C19.86119568 21.79005753 20.21067261 22.76761505 20.57073975 23.77479553 C21.30114174 25.82059835 22.03047988 27.86678128 22.75878906 29.91333008 C23.87734078 33.05268933 25.00303481 36.18943143 26.12890625 39.32617188 C26.84028205 41.32145837 27.5512349 43.31689572 28.26171875 45.3125 C28.76786713 46.7186985 28.76786713 46.7186985 29.28424072 48.15330505 C29.59166199 49.02173538 29.89908325 49.89016571 30.21582031 50.78491211 C30.48799377 51.54750839 30.76016724 52.31010468 31.04058838 53.09580994 C31.62109375 55.09765625 31.62109375 55.09765625 31.62109375 58.09765625 C27.00109375 58.09765625 22.38109375 58.09765625 17.62109375 58.09765625 C16.30109375 53.80765625 14.98109375 49.51765625 13.62109375 45.09765625 C7.35109375 45.09765625 1.08109375 45.09765625 -5.37890625 45.09765625 C-6.69890625 49.38765625 -8.01890625 53.67765625 -9.37890625 58.09765625 C-13.99890625 58.09765625 -18.61890625 58.09765625 -23.37890625 58.09765625 C-21.97489431 51.07171444 -19.91463913 44.49365854 -17.5 37.75390625 C-17.1278688 36.70360229 -16.75573761 35.65329834 -16.37232971 34.57116699 C-15.59065864 32.3684911 -14.80643389 30.16671993 -14.01977539 27.96582031 C-12.81091455 24.58228528 -11.6109149 21.19570286 -10.41210938 17.80859375 C-9.65025538 15.66518118 -8.88790351 13.52194549 -8.125 11.37890625 C-7.76458115 10.36235962 -7.40416229 9.34581299 -7.03282166 8.29846191 C-6.69899979 7.36659058 -6.36517792 6.43471924 -6.02124023 5.47460938 C-5.72749008 4.65126099 -5.43373993 3.8279126 -5.13108826 2.97961426 C-3.85195775 -0.22076793 -3.74913569 0.10835652 0 0 Z M3.62109375 12.09765625 C0.65109375 22.49265625 0.65109375 22.49265625 -2.37890625 33.09765625 C1.91109375 33.09765625 6.20109375 33.09765625 10.62109375 33.09765625 C8.7269608 26.0623053 6.75206756 19.06488267 4.62109375 12.09765625 C4.29109375 12.09765625 3.96109375 12.09765625 3.62109375 12.09765625 Z " fill="#1E3768" transform="translate(1154.37890625,110.90234375)"/>
<path d="M0 0 C1.39456452 0.00667256 2.78911118 0.01863093 4.18359375 0.03515625 C4.89451172 0.03966797 5.60542969 0.04417969 6.33789062 0.04882812 C8.09899388 0.06064761 9.86005411 0.07858362 11.62109375 0.09765625 C14.41383279 6.94806387 17.02646216 13.84504949 19.51171875 20.8125 C19.86119568 21.79005753 20.21067261 22.76761505 20.57073975 23.77479553 C21.30114174 25.82059835 22.03047988 27.86678128 22.75878906 29.91333008 C23.87734078 33.05268933 25.00303481 36.18943143 26.12890625 39.32617188 C26.84028205 41.32145837 27.5512349 43.31689572 28.26171875 45.3125 C28.76786713 46.7186985 28.76786713 46.7186985 29.28424072 48.15330505 C29.59166199 49.02173538 29.89908325 49.89016571 30.21582031 50.78491211 C30.48799377 51.54750839 30.76016724 52.31010468 31.04058838 53.09580994 C31.62109375 55.09765625 31.62109375 55.09765625 31.62109375 58.09765625 C27.00109375 58.09765625 22.38109375 58.09765625 17.62109375 58.09765625 C16.30109375 53.80765625 14.98109375 49.51765625 13.62109375 45.09765625 C7.35109375 45.09765625 1.08109375 45.09765625 -5.37890625 45.09765625 C-6.69890625 49.38765625 -8.01890625 53.67765625 -9.37890625 58.09765625 C-13.99890625 58.09765625 -18.61890625 58.09765625 -23.37890625 58.09765625 C-21.97489431 51.07171444 -19.91463913 44.49365854 -17.5 37.75390625 C-17.1278688 36.70360229 -16.75573761 35.65329834 -16.37232971 34.57116699 C-15.59065864 32.3684911 -14.80643389 30.16671993 -14.01977539 27.96582031 C-12.81091455 24.58228528 -11.6109149 21.19570286 -10.41210938 17.80859375 C-9.65025538 15.66518118 -8.88790351 13.52194549 -8.125 11.37890625 C-7.76458115 10.36235962 -7.40416229 9.34581299 -7.03282166 8.29846191 C-6.69899979 7.36659058 -6.36517792 6.43471924 -6.02124023 5.47460938 C-5.72749008 4.65126099 -5.43373993 3.8279126 -5.13108826 2.97961426 C-3.85195775 -0.22076793 -3.74913569 0.10835652 0 0 Z M3.62109375 12.09765625 C0.65109375 22.49265625 0.65109375 22.49265625 -2.37890625 33.09765625 C1.91109375 33.09765625 6.20109375 33.09765625 10.62109375 33.09765625 C8.64109375 26.16765625 6.66109375 19.23765625 4.62109375 12.09765625 C4.29109375 12.09765625 3.96109375 12.09765625 3.62109375 12.09765625 Z " fill="#1E3768" transform="translate(693.37890625,299.90234375)"/>
<path d="M0 0 C5.28 0 10.56 0 16 0 C20.79493153 12.82365409 25.3945182 25.71045211 29.9375 38.625 C30.38529312 39.89553726 30.38529312 39.89553726 30.84213257 41.19174194 C31.69731897 43.61939342 32.55023475 46.04782938 33.40234375 48.4765625 C33.79561859 49.59254066 33.79561859 49.59254066 34.19683838 50.73106384 C36 55.88486799 36 55.88486799 36 57 C31.38 57 26.76 57 22 57 C20.26436339 52.54771478 18.94389853 48.71949266 18 44 C11.4 44 4.8 44 -2 44 C-2.474375 45.959375 -2.94875 47.91875 -3.4375 49.9375 C-4.875 55.875 -4.875 55.875 -6 57 C-8.18639453 57.07258946 -10.37500389 57.08373783 -12.5625 57.0625 C-14.35880859 57.04896484 -14.35880859 57.04896484 -16.19140625 57.03515625 C-17.11824219 57.02355469 -18.04507813 57.01195312 -19 57 C-18.30756356 50.96554464 -16.22068236 45.46253669 -14.21875 39.765625 C-13.84520386 38.69125183 -13.47165771 37.61687866 -13.08679199 36.50994873 C-12.2988823 34.24657013 -11.50867126 31.98399152 -10.71630859 29.72216797 C-9.50001737 26.2500496 -8.29040761 22.77566116 -7.08203125 19.30078125 C-6.3154899 17.10142802 -5.54857576 14.90220468 -4.78125 12.703125 C-4.41769409 11.66045471 -4.05413818 10.61778442 -3.67956543 9.54351807 C-3.34251587 8.58201843 -3.00546631 7.6205188 -2.65820312 6.62988281 C-2.36143677 5.78194153 -2.06467041 4.93400024 -1.75891113 4.06036377 C-1 2 -1 2 0 0 Z M7 13 C6.16169027 15.76941606 5.32917966 18.54035069 4.5 21.3125 C4.26152344 22.09818359 4.02304687 22.88386719 3.77734375 23.69335938 C3.55175781 24.45068359 3.32617188 25.20800781 3.09375 25.98828125 C2.88427734 26.68477783 2.67480469 27.38127441 2.45898438 28.09887695 C1.88265736 30.16007833 1.88265736 30.16007833 2 33 C6.29 33 10.58 33 15 33 C13.02 26.4 11.04 19.8 9 13 C8.34 13 7.68 13 7 13 Z " fill="#1E3767" transform="translate(718,112)"/>
<path d="M0 0 C5.28 0 10.56 0 16 0 C18.46028464 6.988821 20.92035951 13.97771575 23.38006496 20.96674061 C24.5222069 24.21200418 25.66444081 27.45723531 26.80688477 30.70239258 C28.1202281 34.43300917 29.43317167 38.16376638 30.74609375 41.89453125 C31.36175453 43.64308159 31.36175453 43.64308159 31.98985291 45.42695618 C32.37017166 46.50785019 32.75049042 47.5887442 33.14233398 48.70239258 C33.47764633 49.65503494 33.81295868 50.60767731 34.15843201 51.58918762 C34.78634397 53.38794653 35.3975212 55.1925636 36 57 C31.38 57 26.76 57 22 57 C18 47.375 18 47.375 18 44 C11.4 44 4.8 44 -2 44 C-2.474375 45.959375 -2.94875 47.91875 -3.4375 49.9375 C-4.875 55.875 -4.875 55.875 -6 57 C-8.35313555 57.07271741 -10.70833668 57.08370868 -13.0625 57.0625 C-14.35285156 57.05347656 -15.64320313 57.04445313 -16.97265625 57.03515625 C-17.97167969 57.02355469 -18.97070312 57.01195312 -20 57 C-13.76166231 37.82920731 -7.03312284 18.8908365 0 0 Z M7 13 C6.16169027 15.76941606 5.32917966 18.54035069 4.5 21.3125 C4.26152344 22.09818359 4.02304687 22.88386719 3.77734375 23.69335938 C3.55175781 24.45068359 3.32617188 25.20800781 3.09375 25.98828125 C2.88427734 26.68477783 2.67480469 27.38127441 2.45898438 28.09887695 C1.88265736 30.16007833 1.88265736 30.16007833 2 33 C5.96 33 9.92 33 14 33 C12.73163421 26.17033804 11.111722 19.61672893 9 13 C8.34 13 7.68 13 7 13 Z " fill="#1E3768" transform="translate(668,206)"/>
<path d="M0 0 C11.22 0 22.44 0 34 0 C34 3.3 34 6.6 34 10 C27.07 10 20.14 10 13 10 C13 13.96 13 17.92 13 22 C19.27 22 25.54 22 32 22 C32 25.3 32 28.6 32 32 C25.73 32 19.46 32 13 32 C13 36.62 13 41.24 13 46 C19.93 46 26.86 46 34 46 C34 49.63 34 53.26 34 57 C22.78 57 11.56 57 0 57 C0 38.19 0 19.38 0 0 Z " fill="#1D3667" transform="translate(789,301)"/>
<path d="M0 0 C11.22 0 22.44 0 34 0 C34 3.3 34 6.6 34 10 C27.07 10 20.14 10 13 10 C13 13.96 13 17.92 13 22 C19.27 22 25.54 22 32 22 C32 25.3 32 28.6 32 32 C25.73 32 19.46 32 13 32 C13 36.62 13 41.24 13 46 C19.93 46 26.86 46 34 46 C34 49.63 34 53.26 34 57 C22.78 57 11.56 57 0 57 C0 38.19 0 19.38 0 0 Z " fill="#1D3667" transform="translate(1017,112)"/>
<path d="M0 0 C10.89 0 21.78 0 33 0 C33 3.3 33 6.6 33 10 C26.4 10 19.8 10 13 10 C13 13.96 13 17.92 13 22 C19.27 22 25.54 22 32 22 C32 25.3 32 28.6 32 32 C25.73 32 19.46 32 13 32 C13 36.62 13 41.24 13 46 C19.6 46 26.2 46 33 46 C33 49.63 33 53.26 33 57 C22.11 57 11.22 57 0 57 C0 38.19 0 19.38 0 0 Z " fill="#1D3667" transform="translate(1055,301)"/>
<path d="M0 0 C4.29 0 8.58 0 13 0 C14.99761557 5.2186755 16.83309272 10.44271505 18.48046875 15.78125 C18.69818436 16.48020386 18.91589996 17.17915771 19.14021301 17.89929199 C19.82481303 20.09886011 20.50621351 22.29940359 21.1875 24.5 C21.65538624 26.00527447 22.12348338 27.5104834 22.59179688 29.015625 C23.73029968 32.67633159 24.86593721 36.33791561 26 40 C26.35827881 38.82381104 26.71655762 37.64762207 27.08569336 36.43579102 C28.41128685 32.08699613 29.74101584 27.73947516 31.07202148 23.39233398 C31.64835339 21.5079156 32.2235515 19.62315008 32.79760742 17.73803711 C33.62123069 15.03407979 34.44887576 12.33138252 35.27734375 9.62890625 C35.53466782 8.78099014 35.79199188 7.93307404 36.05711365 7.0594635 C37.88612829 1.11387171 37.88612829 1.11387171 39 0 C41.18639453 -0.07258946 43.37500389 -0.08373783 45.5625 -0.0625 C47.35880859 -0.04896484 47.35880859 -0.04896484 49.19140625 -0.03515625 C50.11824219 -0.02355469 51.04507813 -0.01195313 52 0 C50.08672419 7.31226634 47.91996178 14.48272452 45.4609375 21.62890625 C45.13461334 22.58522446 44.80828918 23.54154266 44.47207642 24.52684021 C43.78961672 26.52470422 43.10555011 28.52201999 42.41992188 30.51879883 C41.36733481 33.58482756 40.31999417 36.65261135 39.2734375 39.72070312 C38.6070729 41.66937415 37.94041691 43.61794557 37.2734375 45.56640625 C36.95990326 46.48402237 36.64636902 47.40163849 36.32333374 48.34706116 C36.03278107 49.19231857 35.74222839 50.03757599 35.44287109 50.90844727 C35.06006485 52.02450096 35.06006485 52.02450096 34.66952515 53.1631012 C34 55 34 55 33 57 C28.38 57 23.76 57 19 57 C16.93591252 51.09624942 14.87297051 45.19210023 12.81103516 39.28759766 C12.11114558 37.28391011 11.41095685 35.28032703 10.71044922 33.27685547 C0 2.64283167 0 2.64283167 0 0 Z " fill="#1E3768" transform="translate(953,112)"/>
<path d="M0 0 C1.4540625 0.7425 1.4540625 0.7425 2.9375 1.5 C2.33051257 5.62751449 0.89939209 8.8321148 -1.0625 12.5 C-1.84753906 12.27183594 -2.63257813 12.04367188 -3.44140625 11.80859375 C-9.39974365 10.17827566 -14.01884968 8.98908742 -20.0625 10.5 C-20.12970275 13.8718282 -20.12970275 13.8718282 -19.0625 17.5 C-16.60477134 19.18853926 -14.6234939 20.28084886 -11.9375 21.4375 C0.09864369 27.30129877 0.09864369 27.30129877 2.9375 33.5 C4.04711056 39.99672747 3.80290514 45.03964614 -0.0625 50.5 C-5.59465661 55.5954074 -10.46291316 56.86796931 -17.875 56.8125 C-18.93750977 56.81056641 -18.93750977 56.81056641 -20.02148438 56.80859375 C-25.36201642 56.71033189 -29.31744263 55.87252869 -34.0625 53.5 C-34.0625 49.54 -34.0625 45.58 -34.0625 41.5 C-32.474375 41.995 -30.88625 42.49 -29.25 43 C-23.42487132 44.61136677 -18.06906244 44.81368895 -12.0625 44.5 C-11.4025 42.85 -10.7425 41.2 -10.0625 39.5 C-14.50715357 34.64826601 -19.15972755 32.20841101 -25.00390625 29.34375 C-28.81148216 27.04850628 -31.0807067 24.4635866 -33.0625 20.5 C-33.21101844 18.56640414 -33.28380833 16.62657903 -33.3125 14.6875 C-33.33828125 13.64980469 -33.3640625 12.61210937 -33.390625 11.54296875 C-32.88623748 6.86537492 -31.00569354 4.34887419 -27.5625 1.25 C-20.80426721 -3.48076295 -7.6359812 -2.92207223 0 0 Z " fill="#1F3868" transform="translate(929.0625,207.5)"/>
<path d="M0 0 C10.89 0 21.78 0 33 0 C33 3.3 33 6.6 33 10 C26.07 10 19.14 10 12 10 C12 13.96 12 17.92 12 22 C18.27 22 24.54 22 31 22 C31 25.3 31 28.6 31 32 C24.73 32 18.46 32 12 32 C12 36.62 12 41.24 12 46 C18.93 46 25.86 46 33 46 C33 49.63 33 53.26 33 57 C22.11 57 11.22 57 0 57 C0 38.19 0 19.38 0 0 Z " fill="#1D3667" transform="translate(935,301)"/>
<path d="M0 0 C1.13643966 3.40931897 0.86747764 4.00335456 -0.4375 7.1875 C-0.86869141 8.26064453 -0.86869141 8.26064453 -1.30859375 9.35546875 C-1.65083984 10.16951172 -1.65083984 10.16951172 -2 11 C-5.12290635 10.51421457 -7.99580359 10.0013988 -11 9 C-15.22372236 8.58870119 -18.89776661 8.56869128 -22.875 10.125 C-26.64568964 13.45207909 -27.88873853 16.91792765 -28.3984375 21.875 C-28.40630964 23.24999966 -28.39825833 24.62517453 -28.375 26 C-28.38660156 26.68578125 -28.39820313 27.3715625 -28.41015625 28.078125 C-28.38306487 32.81008687 -27.2987255 35.91337688 -25 40 C-25 40.66 -25 41.32 -25 42 C-18.60033548 43.77011997 -13.68664496 44.170179 -7.2265625 42.5078125 C-5 42 -5 42 -1 42 C-1 45.63 -1 49.26 -1 53 C-9.49386773 56.38670962 -21.63121004 56.82965219 -30.25 53.5 C-35.74307669 50.39802728 -38.91939133 46.00851278 -41.03125 40.12890625 C-43.86190248 29.84158126 -44.11146138 20.01843437 -40 10 C-36.36747721 4.55121582 -31.87414356 -0.8477398 -25.359375 -2.671875 C-17.19553043 -3.80724411 -7.34875924 -4.43113771 0 0 Z " fill="#1F3868" transform="translate(875,114)"/>
<path d="M0 0 C-0.55105909 3.9492568 -1.38935371 7.34920174 -3 11 C-6.12290635 10.51421457 -8.99580359 10.0013988 -12 9 C-19.39725343 8.37338904 -19.39725343 8.37338904 -26 11 C-30.0376993 18.02919311 -30.29017145 27.54014399 -28.4609375 35.28125 C-27.07893557 38.86534293 -25.43765221 41.28117389 -22 43 C-15.26686692 44.86235596 -8.75894428 43.22982294 -2 42 C-2 45.63 -2 49.26 -2 53 C-10.93119639 56.52547226 -19.81435654 56.68035337 -29 54 C-35.76266469 50.49343313 -39.81702045 45.39732726 -42.38256836 38.25634766 C-43.44627174 34.3691406 -43.48816118 30.57197028 -43.4375 26.5625 C-43.42992676 25.72428711 -43.42235352 24.88607422 -43.41455078 24.02246094 C-43.25219601 17.94778518 -42.55381269 13.07528875 -39 8 C-38.5875 7.35933594 -38.175 6.71867187 -37.75 6.05859375 C-28.88556063 -6.00409505 -12.61663407 -4.78463775 0 0 Z " fill="#1E3768" transform="translate(498,303)"/>
<path d="M0 0 C4.62 0 9.24 0 14 0 C14.71027344 1.43214844 15.42054688 2.86429688 16.15234375 4.33984375 C17.08062427 6.20578136 18.00901539 8.07166394 18.9375 9.9375 C19.40607422 10.88302734 19.87464844 11.82855469 20.35742188 12.80273438 C21.0293457 14.15141602 21.0293457 14.15141602 21.71484375 15.52734375 C22.12855225 16.35999756 22.54226074 17.19265137 22.96850586 18.05053711 C23.85030942 19.94841137 23.85030942 19.94841137 25 21 C28.63 14.07 32.26 7.14 36 0 C40.62 0 45.24 0 50 0 C48.59628567 4.21114299 47.40477532 7.37591879 45.3203125 11.15234375 C44.80339844 12.09400391 44.28648437 13.03566406 43.75390625 14.00585938 C43.21636719 14.97330078 42.67882812 15.94074219 42.125 16.9375 C41.59519531 17.90107422 41.06539062 18.86464844 40.51953125 19.85742188 C40.00003906 20.80037109 39.48054687 21.74332031 38.9453125 22.71484375 C38.19024414 24.09410034 38.19024414 24.09410034 37.41992188 25.5012207 C36 28 36 28 34.75195312 29.84838867 C31.22702888 35.12390927 31.33773364 40.30810861 31.25 46.4375 C31.20552734 47.96407227 31.20552734 47.96407227 31.16015625 49.52148438 C31.0899472 52.01390583 31.04265261 54.50695472 31 57 C26.71 57 22.42 57 18 57 C18.18755859 55.06640625 18.18755859 55.06640625 18.37890625 53.09375 C19.26647817 34.81515793 11.66596887 21.73649286 2.56613159 6.51786804 C0 2.20107672 0 2.20107672 0 0 Z " fill="#1E3768" transform="translate(709,206)"/>
<path d="M0 0 C4.62 0 9.24 0 14 0 C17.63 6.6 21.26 13.2 25 20 C28.63 13.4 32.26 6.8 36 0 C40.62 0 45.24 0 50 0 C48.8808119 2.29464823 47.75428942 4.58532516 46.625 6.875 C46.27429443 7.59679443 45.92358887 8.31858887 45.56225586 9.06225586 C43.64829413 12.93812216 41.64418987 16.64228031 39.27734375 20.26171875 C31.52118325 32.38037351 30.56953254 42.74393054 31 57 C26.71 57 22.42 57 18 57 C18.09023437 55.65292969 18.18046875 54.30585938 18.2734375 52.91796875 C18.85391605 33.73469829 11.24894614 20.16010023 1.29248047 4.27587891 C0 2 0 2 0 0 Z " fill="#1E3768" transform="translate(1220,301)"/>
<path d="M0 0 C14.19 0 28.38 0 43 0 C43 3.63 43 7.26 43 11 C38.05 11 33.1 11 28 11 C28 26.18 28 41.36 28 57 C23.71 57 19.42 57 15 57 C15 41.82 15 26.64 15 11 C10.05 11 5.1 11 0 11 C0 7.37 0 3.74 0 0 Z " fill="#1D3667" transform="translate(732,301)"/>
<path d="M0 0 C14.19 0 28.38 0 43 0 C43 3.3 43 6.6 43 10 C38.05 10 33.1 10 28 10 C28 25.51 28 41.02 28 57 C23.71 57 19.42 57 15 57 C15 41.49 15 25.98 15 10 C10.05 10 5.1 10 0 10 C0 6.7 0 3.4 0 0 Z " fill="#1D3667" transform="translate(1263,112)"/>
<path d="M0 0 C4.29 0 8.58 0 13 0 C13 15.18 13 30.36 13 46 C20.59 46 28.18 46 36 46 C36 49.63 36 53.26 36 57 C24.12 57 12.24 57 0 57 C0 38.19 0 19.38 0 0 Z " fill="#1E3768" transform="translate(513,301)"/>
<path d="M0 0 C4.29 0 8.58 0 13 0 C13 15.18 13 30.36 13 46 C20.59 46 28.18 46 36 46 C36 49.63 36 53.26 36 57 C24.12 57 12.24 57 0 57 C0 38.19 0 19.38 0 0 Z " fill="#1D3667" transform="translate(766,112)"/>
<path d="M0 0 C4.29 0 8.58 0 13 0 C13 15.18 13 30.36 13 46 C20.59 46 28.18 46 36 46 C36 49.63 36 53.26 36 57 C24.12 57 12.24 57 0 57 C0 38.19 0 19.38 0 0 Z " fill="#1D3667" transform="translate(527,112)"/>
<path d="M0 0 C0.97324219 0.00644531 1.94648437 0.01289063 2.94921875 0.01953125 C5.3125 0.1875 5.3125 0.1875 6.3125 1.1875 C6.4375 4.6875 6.4375 4.6875 6.3125 8.1875 C5.3125 9.1875 5.3125 9.1875 1.9375 9.3125 C-1.65236988 9.75472114 -1.65236988 9.75472114 -2.81640625 11.80859375 C-3.7520513 13.96868621 -3.7520513 13.96868621 -4.6875 17.1875 C-2.3775 17.1875 -0.0675 17.1875 2.3125 17.1875 C1.4375 25.0625 1.4375 25.0625 0.3125 26.1875 C-2.02047433 26.22842937 -4.35455225 26.22991723 -6.6875 26.1875 C-6.77386719 26.78691406 -6.86023438 27.38632813 -6.94921875 28.00390625 C-8.09502331 35.39382004 -9.51515205 42.7341314 -11 50.0625 C-11.18844482 51.06095947 -11.37688965 52.05941895 -11.57104492 53.08813477 C-12.83117956 59.13952818 -14.18127746 62.88482957 -18.6875 67.1875 C-23.62457528 69.71089403 -27.40565021 69.09816376 -32.6875 68.1875 C-32.6875 65.8775 -32.6875 63.5675 -32.6875 61.1875 C-26.9375 59.1875 -26.9375 59.1875 -24.6875 59.1875 C-24.43355469 57.97835937 -24.17960937 56.76921875 -23.91796875 55.5234375 C-21.86173565 45.74029727 -19.79194241 35.96040301 -17.6875 26.1875 C-19.3375 25.8575 -20.9875 25.5275 -22.6875 25.1875 C-21.8125 18.3125 -21.8125 18.3125 -20.6875 17.1875 C-19.02132885 17.14686168 -17.35361905 17.144779 -15.6875 17.1875 C-15.58953125 16.60742188 -15.4915625 16.02734375 -15.390625 15.4296875 C-14.39144735 10.20984564 -13.15777646 6.37224515 -9.6875 2.1875 C-6.44158994 0.09014273 -3.8203259 -0.05610625 0 0 Z " fill="#008EC1" transform="translate(534.6875,200.8125)"/>
<path d="M0 0 C0.97324219 0.00644531 1.94648437 0.01289063 2.94921875 0.01953125 C5.3125 0.1875 5.3125 0.1875 6.3125 1.1875 C6.4375 4.6875 6.4375 4.6875 6.3125 8.1875 C5.3125 9.1875 5.3125 9.1875 1.9375 9.3125 C-1.65236988 9.75472114 -1.65236988 9.75472114 -2.81640625 11.80859375 C-3.7520513 13.96868621 -3.7520513 13.96868621 -4.6875 17.1875 C-2.3775 17.1875 -0.0675 17.1875 2.3125 17.1875 C1.4375 25.0625 1.4375 25.0625 0.3125 26.1875 C-2.02047433 26.22842937 -4.35455225 26.22991723 -6.6875 26.1875 C-6.89113159 27.34366821 -6.89113159 27.34366821 -7.09887695 28.52319336 C-7.72560872 32.05840612 -8.36272304 35.59167359 -9 39.125 C-9.21333984 40.33736328 -9.42667969 41.54972656 -9.64648438 42.79882812 C-13.12198419 61.94001366 -13.12198419 61.94001366 -18.6875 67.1875 C-23.65426304 69.67088152 -27.39648029 69.09974478 -32.6875 68.1875 C-32.6875 65.8775 -32.6875 63.5675 -32.6875 61.1875 C-26.9375 59.1875 -26.9375 59.1875 -24.6875 59.1875 C-24.43355469 57.97835937 -24.17960938 56.76921875 -23.91796875 55.5234375 C-21.86173565 45.74029727 -19.79194241 35.96040301 -17.6875 26.1875 C-19.3375 25.8575 -20.9875 25.5275 -22.6875 25.1875 C-21.8125 18.3125 -21.8125 18.3125 -20.6875 17.1875 C-19.02132885 17.14686168 -17.35361905 17.144779 -15.6875 17.1875 C-15.58953125 16.60742188 -15.4915625 16.02734375 -15.390625 15.4296875 C-14.39144735 10.20984564 -13.15777646 6.37224515 -9.6875 2.1875 C-6.44158994 0.09014273 -3.8203259 -0.05610625 0 0 Z " fill="#008EC1" transform="translate(993.6875,200.8125)"/>
<path d="M0 0 C3.11423131 2.23585837 5.04936006 4.24172468 6.01953125 8.01171875 C6.84636519 16.71449631 5.81283846 23.67812158 0.8671875 31.0234375 C-2.00767602 34.49526721 -5.34914704 36.34554901 -9.5625 37.75 C-22.96363217 38.76548952 -22.96363217 38.76548952 -27.3125 36 C-31.26122982 32.05127018 -31.85528292 29.04707099 -31.875 23.5 C-31.72168588 14.94315554 -29.86244276 8.90994403 -23.5625 2.75 C-16.63681291 -2.4362122 -8.02460525 -2.81565096 0 0 Z M-16.9375 10 C-19.39443259 14.15788592 -20.8527743 16.90062005 -20.875 21.8125 C-20.89175781 22.66972656 -20.90851562 23.52695313 -20.92578125 24.41015625 C-20.73907575 26.80315276 -20.73907575 26.80315276 -19.2265625 28.5625 C-17.50453664 30.04169962 -17.50453664 30.04169962 -14.625 29.6875 C-10.99337747 28.57577882 -9.79052294 27.82313509 -7.5625 24.75 C-4.94314131 19.15409735 -4.05993057 14.76027773 -5.5625 8.75 C-6.77940541 7.3215968 -6.77940541 7.3215968 -10.375 7.375 C-13.81144039 7.41188487 -14.30771007 7.50862006 -16.9375 10 Z " fill="#008EC1" transform="translate(1031.5625,218.25)"/>
<path d="M0 0 C3.53296473 2.5364875 5.067571 4.64021299 6.4375 8.75 C7.30908273 16.94622987 5.85914462 25.16199162 0.625 31.6875 C-2.89532006 35.70086208 -6.94545729 37.55823532 -12.21875 38.18359375 C-13.4871875 38.18488281 -14.755625 38.18617188 -16.0625 38.1875 C-17.96515625 38.21650391 -17.96515625 38.21650391 -19.90625 38.24609375 C-24.19467021 37.66422477 -26.2949444 36.56105886 -29.5625 33.75 C-32.7394912 28.04794354 -32.49912003 21.16335237 -30.8046875 14.98828125 C-28.12166375 7.92157697 -25.00874938 2.71610927 -17.9765625 -0.5234375 C-12.00084236 -2.32195521 -5.84402888 -2.05053645 0 0 Z M-16.5625 9.75 C-20.0552227 14.32482391 -21.24087036 19.1199521 -20.9453125 24.82421875 C-20.67435696 26.92734826 -20.67435696 26.92734826 -18.9375 28.875 C-15.64678445 30.08736889 -13.8847964 29.85743213 -10.5625 28.75 C-6.18818411 24.49719288 -4.71936215 20.0637167 -4.3125 14.0625 C-4.30061257 10.61144644 -4.30061257 10.61144644 -6.5625 7.75 C-10.49751029 5.78249485 -13.14266213 7.39886146 -16.5625 9.75 Z " fill="#008EC1" transform="translate(495.5625,218.25)"/>
<path d="M0 0 C4.29 0 8.58 0 13 0 C13 18.81 13 37.62 13 57 C8.71 57 4.42 57 0 57 C0 38.19 0 19.38 0 0 Z " fill="#1D3667" transform="translate(564,301)"/>
<path d="M0 0 C0.33 0.33 0.66 0.66 1 1 C0.91062197 2.52519276 0.75462854 4.04681929 0.5625 5.5625 C0.46066406 6.38878906 0.35882812 7.21507812 0.25390625 8.06640625 C0.17011719 8.70449219 0.08632812 9.34257812 0 10 C-3 11 -3 11 -5.9375 11.125 C-9.27723727 11.72914686 -9.27723727 11.72914686 -11.05859375 14.97265625 C-13.33930711 19.23520465 -14.24051824 23.59398208 -15.125 28.3125 C-16.74926108 36.74926108 -16.74926108 36.74926108 -19 39 C-21.71454956 39.32752234 -24.25230759 39.1308425 -27 39 C-27.33 38.67 -27.66 38.34 -28 38 C-27.85926317 30.25119597 -26.05077499 22.55892037 -24.5 15 C-24.27441406 13.86949219 -24.04882812 12.73898438 -23.81640625 11.57421875 C-22.13612928 3.27225855 -22.13612928 3.27225855 -21 1 C-18.03 1 -15.06 1 -12 1 C-11.67 1.66 -11.34 2.32 -11 3 C-10.484375 2.505 -9.96875 2.01 -9.4375 1.5 C-6.17070493 -0.51033543 -3.76579264 -0.28421077 0 0 Z " fill="#008EC1" transform="translate(1074,217)"/>
<path d="M0 0 C0 5.28 0 10.56 0 16 C-9.375 19 -9.375 19 -15 19 C-15 14.05 -15 9.1 -15 4 C-12.710625 3.34 -10.42125 2.68 -8.0625 2 C-6.97980835 1.68675781 -6.97980835 1.68675781 -5.87524414 1.3671875 C-1.11111111 0 -1.11111111 0 0 0 Z " fill="#008DBF" transform="translate(294,311)"/>
</svg>
