<svg width="798" height="154" viewBox="0 0 798 154" fill="none" xmlns="http://www.w3.org/2000/svg">
<g clip-path="url(#clip0)">
<path fill-rule="evenodd" clip-rule="evenodd" d="M94.6007 120.58C109.851 123.142 123.467 122.341 133.149 118.302C117.344 139.302 90.8205 149.681 64.9449 144.962C74.7414 141.371 85.2092 132.756 94.6007 120.58ZM32.8431 93.5971C30.337 108.706 31.1384 122.195 35.1266 131.821C14.4212 116.084 4.14632 89.8859 8.64786 64.259C12.2816 73.9594 20.8182 84.3025 32.8431 93.5971ZM146.157 88.385C150.729 62.5456 140.272 36.1129 119.242 20.398C123.249 30.0222 124.059 43.525 121.553 58.6539C133.817 68.0563 142.51 78.5542 146.157 88.385ZM21.7234 34.1876C37.3701 13.4522 63.4775 3.09964 89.0675 7.45456C79.3336 11.1448 68.9615 19.7589 59.6565 31.8704C44.6678 29.4198 31.2909 30.2317 21.7234 34.1876ZM146.533 106.335C163.132 68.1595 145.641 23.7558 107.466 7.15667C69.29 -9.44251 24.8864 8.04855 8.28718 46.224C-8.312 84.3996 9.17906 128.803 47.3546 145.402C85.5301 162.002 129.934 144.51 146.533 106.335ZM88.4288 119.378C84.646 124.029 80.7304 128.039 76.8163 131.313C67.2018 139.356 58.6934 142.156 52.328 140.968L64.9539 111.931C72.9169 115.22 80.8296 117.697 88.4288 119.378ZM59.8312 109.704L47.1632 138.839C41.7352 135.126 37.7951 126.897 37.102 114.045C36.8257 108.922 37.0927 103.291 37.9247 97.3169C44.4497 101.843 51.8123 106.044 59.8312 109.704ZM67.1815 106.807C75.7565 110.342 84.2156 112.879 92.2018 114.463C97.5208 107.129 102.467 98.5236 106.635 88.938C110.788 79.3864 113.702 69.9332 115.441 61.0688C108.832 56.3036 101.202 51.8424 92.7611 47.9785L67.1815 106.807ZM87.6393 45.7503L62.0588 104.581C53.4378 100.639 45.6614 96.0739 38.9532 91.1975C40.6917 82.3356 43.6051 72.8855 47.7569 63.337C51.894 53.8224 56.7982 45.2738 62.0722 37.9756C70.2196 39.5556 78.8693 42.1306 87.6393 45.7503ZM94.9887 42.8554C102.834 46.4401 110.05 50.5427 116.467 54.9602C117.299 48.9855 117.567 43.3532 117.29 38.2298C116.615 25.7132 112.86 17.5811 107.65 13.7357L94.9887 42.8554ZM102.571 11.4106L89.8669 40.6272C81.7119 37.2549 73.6089 34.7337 65.8408 33.0483C69.6616 28.3331 73.6195 24.2711 77.5759 20.9615C87.4476 12.7037 96.1533 9.973 102.571 11.4106ZM120.365 64.8258C125.125 68.6732 129.223 72.6608 132.558 76.6469C141.91 87.8263 144.173 97.5102 141.321 104.069C138.469 110.627 129.843 115.576 115.29 116.361C110.095 116.641 104.377 116.363 98.3094 115.503C103.282 108.321 107.86 100.129 111.758 91.1652C115.641 82.2349 118.503 73.3317 120.365 64.8258ZM55.9519 36.9612C50.0713 36.1565 44.5257 35.9007 39.4746 36.1732C24.9208 36.9581 16.2949 41.9072 13.4431 48.4657C10.5914 55.0242 12.8547 64.7081 22.2064 75.8875C25.4554 79.7715 29.4297 83.6571 34.0352 87.413C35.8973 78.9181 38.7572 70.0274 42.6347 61.1098C46.4978 52.2251 51.0303 44.0975 55.9519 36.9612Z" fill="black"/>
<path d="M233.458 32.5035H207.177V56.0291H200.924V4.06428H207.177V26.9943H233.458V4.06428H239.711V56.0291H233.458V32.5035Z" fill="black"/>
<path d="M286.095 56.0291L280.883 40.6928H259.889L254.678 56.0291H248.35L266.515 4.06428H274.481L292.646 56.0291H286.095ZM270.535 9.87124H270.163L261.378 35.1836H279.32L270.535 9.87124Z" fill="black"/>
<path d="M318.478 56.9225C311.877 56.9225 306.74 54.689 303.067 50.2221C299.394 45.7056 297.558 39.0797 297.558 30.3445C297.558 21.6092 299.394 14.9089 303.067 10.2435C306.74 5.52842 311.877 3.1709 318.478 3.1709C322.846 3.1709 326.494 4.16354 329.422 6.14883C332.4 8.13411 334.708 10.9383 336.346 14.5615L331.283 17.6138C330.241 14.9337 328.653 12.7995 326.518 11.2113C324.384 9.57344 321.704 8.75451 318.478 8.75451C316.244 8.75451 314.234 9.17638 312.448 10.0201C310.711 10.8639 309.222 12.0799 307.981 13.6681C306.79 15.2067 305.871 17.0679 305.226 19.2517C304.581 21.3859 304.258 23.793 304.258 26.4732V34.2158C304.258 39.5761 305.499 43.77 307.981 46.7975C310.462 49.8251 313.961 51.3389 318.478 51.3389C321.803 51.3389 324.583 50.4951 326.816 48.8076C329.05 47.0705 330.687 44.7874 331.73 41.9584L336.718 45.0852C335.08 48.758 332.722 51.6615 329.645 53.7957C326.568 55.8802 322.846 56.9225 318.478 56.9225Z" fill="black"/>
<path d="M360.027 30.4934L352.657 38.6827V56.0291H346.403V4.06428H352.657V31.6845H352.88L360.325 22.6763L376.033 4.06428H383.702L364.345 26.3243L385.042 56.0291H377.299L360.027 30.4934Z" fill="black"/>
<path d="M411.182 56.0291V4.06428H442.152V9.57344H417.435V26.9943H439.993V32.5035H417.435V56.0291H411.182Z" fill="black"/>
<path d="M470.963 56.9225C467.588 56.9225 464.536 56.3517 461.806 55.2102C459.126 54.019 456.818 52.3067 454.882 50.0732C452.996 47.7902 451.532 44.986 450.49 41.6606C449.447 38.2856 448.926 34.4143 448.926 30.0467C448.926 25.6791 449.447 21.8326 450.49 18.5072C451.532 15.1819 452.996 12.3777 454.882 10.0946C456.818 7.8115 459.126 6.09919 461.806 4.95765C464.536 3.76648 467.588 3.1709 470.963 3.1709C474.288 3.1709 477.316 3.76648 480.046 4.95765C482.775 6.09919 485.083 7.8115 486.969 10.0946C488.905 12.3777 490.394 15.1819 491.436 18.5072C492.478 21.8326 493 25.6791 493 30.0467C493 34.4143 492.478 38.2856 491.436 41.6606C490.394 44.986 488.905 47.7902 486.969 50.0732C485.083 52.3067 482.775 54.019 480.046 55.2102C477.316 56.3517 474.288 56.9225 470.963 56.9225ZM470.963 51.3389C473.196 51.3389 475.256 50.9418 477.142 50.1477C479.028 49.3536 480.641 48.212 481.981 46.7231C483.371 45.2341 484.438 43.4474 485.183 41.3628C485.927 39.2783 486.299 36.9456 486.299 34.3647V25.7287C486.299 23.1478 485.927 20.8151 485.183 18.7306C484.438 16.646 483.371 14.8593 481.981 13.3703C480.641 11.8813 479.028 10.7398 477.142 9.94568C475.256 9.15157 473.196 8.75451 470.963 8.75451C468.729 8.75451 466.67 9.15157 464.784 9.94568C462.898 10.7398 461.26 11.8813 459.87 13.3703C458.53 14.8593 457.488 16.646 456.743 18.7306C455.999 20.8151 455.627 23.1478 455.627 25.7287V34.3647C455.627 36.9456 455.999 39.2783 456.743 41.3628C457.488 43.4474 458.53 45.2341 459.87 46.7231C461.26 48.212 462.898 49.3536 464.784 50.1477C466.67 50.9418 468.729 51.3389 470.963 51.3389Z" fill="black"/>
<path d="M510.495 56.0291H504.242V4.06428H524.938C529.505 4.06428 533.053 5.3299 535.585 7.86114C538.165 10.3924 539.456 14.0403 539.456 18.805C539.456 22.6267 538.562 25.7783 536.776 28.2599C535.039 30.6919 532.458 32.3049 529.033 33.0991L540.945 56.0291H533.872L522.631 33.6946H510.495V56.0291ZM524.938 28.3344C527.42 28.3344 529.331 27.6892 530.671 26.3987C532.061 25.1083 532.755 23.2719 532.755 20.8896V17.0183C532.755 14.6359 532.061 12.7995 530.671 11.5091C529.331 10.2187 527.42 9.57344 524.938 9.57344H510.495V28.3344H524.938Z" fill="black"/>
<path d="M569.457 56.0291V4.06428H601.172V9.57344H575.71V26.9943H599.683V32.5035H575.71V50.5199H601.172V56.0291H569.457Z" fill="black"/>
<path d="M645.394 56.0291L640.183 40.6928H619.189L613.977 56.0291H607.649L625.815 4.06428H633.78L651.946 56.0291H645.394ZM629.835 9.87124H629.462L620.678 35.1836H638.62L629.835 9.87124Z" fill="black"/>
<path d="M666.808 56.0291H660.554V4.06428H681.25C685.817 4.06428 689.365 5.3299 691.897 7.86114C694.477 10.3924 695.768 14.0403 695.768 18.805C695.768 22.6267 694.874 25.7783 693.088 28.2599C691.351 30.6919 688.77 32.3049 685.345 33.0991L697.257 56.0291H690.184L678.943 33.6946H666.808V56.0291ZM681.25 28.3344C683.732 28.3344 685.643 27.6892 686.983 26.3987C688.373 25.1083 689.068 23.2719 689.068 20.8896V17.0183C689.068 14.6359 688.373 12.7995 686.983 11.5091C685.643 10.2187 683.732 9.57344 681.25 9.57344H666.808V28.3344H681.25Z" fill="black"/>
<path d="M723.852 9.57344V56.0291H717.599V9.57344H701.071V4.06428H740.38V9.57344H723.852Z" fill="black"/>
<path d="M781.495 32.5035H755.215V56.0291H748.961V4.06428H755.215V26.9943H781.495V4.06428H787.749V56.0291H781.495V32.5035Z" fill="black"/>
<path d="M201.745 148.029V82.103H244.153V93.1536H214.212V109.116H240.281V120.166H214.212V148.029H201.745Z" fill="black"/>
<path d="M279.646 149.163C275.301 149.163 271.365 148.438 267.839 146.99C264.313 145.542 261.291 143.37 258.772 140.473C256.316 137.577 254.396 134.019 253.011 129.8C251.625 125.581 250.933 120.67 250.933 115.066C250.933 109.525 251.625 104.645 253.011 100.426C254.396 96.1446 256.316 92.5555 258.772 89.659C261.291 86.7625 264.313 84.5902 267.839 83.1419C271.365 81.6937 275.301 80.9696 279.646 80.9696C283.99 80.9696 287.926 81.6937 291.452 83.1419C294.978 84.5902 298 86.7625 300.519 89.659C303.038 92.5555 304.958 96.1446 306.28 100.426C307.666 104.645 308.358 109.525 308.358 115.066C308.358 120.67 307.666 125.581 306.28 129.8C304.958 134.019 303.038 137.577 300.519 140.473C298 143.37 294.978 145.542 291.452 146.99C287.926 148.438 283.99 149.163 279.646 149.163ZM279.646 138.112C284.368 138.112 288.115 136.538 290.885 133.389C293.719 130.241 295.135 125.833 295.135 120.166V109.966C295.135 104.299 293.719 99.8911 290.885 96.7427C288.115 93.5944 284.368 92.0202 279.646 92.0202C274.923 92.0202 271.145 93.5944 268.312 96.7427C265.541 99.8911 264.156 104.299 264.156 109.966V120.166C264.156 125.833 265.541 130.241 268.312 133.389C271.145 136.538 274.923 138.112 279.646 138.112Z" fill="black"/>
<path d="M332.813 82.103V122.622C332.813 127.785 333.789 131.658 335.741 134.239C337.756 136.821 341.124 138.112 345.847 138.112C350.569 138.112 353.907 136.821 355.859 134.239C357.873 131.658 358.881 127.785 358.881 122.622V82.103H371.159V121.016C371.159 125.865 370.687 130.052 369.743 133.578C368.861 137.104 367.413 140.032 365.398 142.362C363.383 144.692 360.738 146.423 357.464 147.557C354.253 148.627 350.349 149.163 345.752 149.163C341.093 149.163 337.157 148.627 333.946 147.557C330.798 146.423 328.216 144.692 326.201 142.362C324.186 140.032 322.738 137.104 321.857 133.578C320.975 130.052 320.534 125.865 320.534 121.016V82.103H332.813Z" fill="black"/>
<path d="M405.108 114.216L398.307 100.521H398.024V148.029H386.218V82.103H399.913L419.747 115.916L426.548 129.611H426.831V82.103H438.637V148.029H424.942L405.108 114.216Z" fill="black"/>
<path d="M454.104 82.103H478.094C482.376 82.103 486.248 82.7956 489.711 84.1809C493.237 85.5662 496.228 87.6441 498.684 90.4146C501.203 93.1222 503.123 96.5538 504.445 100.71C505.831 104.802 506.523 109.588 506.523 115.066C506.523 120.544 505.831 125.361 504.445 129.517C503.123 133.61 501.203 137.041 498.684 139.812C496.228 142.52 493.237 144.566 489.711 145.951C486.248 147.336 482.376 148.029 478.094 148.029H454.104V82.103ZM478.094 136.978C482.753 136.978 486.437 135.625 489.144 132.917C491.915 130.147 493.3 125.928 493.3 120.261V109.871C493.3 104.204 491.915 100.017 489.144 97.3094C486.437 94.5389 482.753 93.1536 478.094 93.1536H466.571V136.978H478.094Z" fill="black"/>
<path d="M557.165 148.029L551.876 131.217H528.453L523.258 148.029H510.602L532.703 82.103H548.193L570.105 148.029H557.165ZM540.353 93.437H539.881L531.475 120.544H548.854L540.353 93.437Z" fill="black"/>
<path d="M599.521 93.1536V148.029H587.054V93.1536H568.353V82.103H618.222V93.1536H599.521Z" fill="black"/>
<path d="M625.23 148.029V138.017H633.919V92.1147H625.23V82.103H655.171V92.1147H646.387V138.017H655.171V148.029H625.23Z" fill="black"/>
<path d="M693.787 149.163C689.442 149.163 685.507 148.438 681.98 146.99C678.454 145.542 675.432 143.37 672.913 140.473C670.457 137.577 668.537 134.019 667.152 129.8C665.766 125.581 665.074 120.67 665.074 115.066C665.074 109.525 665.766 104.645 667.152 100.426C668.537 96.1446 670.457 92.5555 672.913 89.659C675.432 86.7625 678.454 84.5902 681.98 83.1419C685.507 81.6937 689.442 80.9696 693.787 80.9696C698.131 80.9696 702.067 81.6937 705.593 83.1419C709.119 84.5902 712.141 86.7625 714.66 89.659C717.179 92.5555 719.099 96.1446 720.422 100.426C721.807 104.645 722.499 109.525 722.499 115.066C722.499 120.67 721.807 125.581 720.422 129.8C719.099 134.019 717.179 137.577 714.66 140.473C712.141 143.37 709.119 145.542 705.593 146.99C702.067 148.438 698.131 149.163 693.787 149.163ZM693.787 138.112C698.509 138.112 702.256 136.538 705.026 133.389C707.86 130.241 709.276 125.833 709.276 120.166V109.966C709.276 104.299 707.86 99.8911 705.026 96.7427C702.256 93.5944 698.509 92.0202 693.787 92.0202C689.064 92.0202 685.286 93.5944 682.453 96.7427C679.682 99.8911 678.297 104.299 678.297 109.966V120.166C678.297 125.833 679.682 130.241 682.453 133.389C685.286 136.538 689.064 138.112 693.787 138.112Z" fill="black"/>
<path d="M754.038 114.216L747.237 100.521H746.954V148.029H735.148V82.103H748.843L768.677 115.916L775.478 129.611H775.761V82.103H787.567V148.029H773.872L754.038 114.216Z" fill="black"/>
</g>
<defs>
<clipPath id="clip0">
<rect width="798" height="154" fill="white"/>
</clipPath>
</defs>
</svg>
